<?xml version="1.0" encoding="UTF-8"?>
<svg id="Capa_1" data-name="Capa 1" xmlns="http://www.w3.org/2000/svg" viewBox="0 0 704.83 703.7">
  <defs>
    <style>
      .cls-1 {
        fill: #f9ddbb;
      }

      .cls-2 {
        fill: #d7a770;
      }

      .cls-3 {
        fill: #f7dab8;
      }

      .cls-4 {
        fill: #f5d7b4;
      }

      .cls-5 {
        fill: #c98d4c;
      }

      .cls-6 {
        fill: #edcea9;
      }

      .cls-7 {
        fill: #c88c4a;
      }

      .cls-8 {
        fill: #eecba2;
      }

      .cls-9 {
        fill: #fde4c5;
      }

      .cls-10 {
        fill: #eac9a2;
      }

      .cls-11 {
        fill: #c88d4b;
      }

      .cls-12 {
        fill: #c58844;
      }

      .cls-13 {
        fill: #f4dbbc;
      }

      .cls-14 {
        fill: #f9e5ca;
      }

      .cls-15 {
        fill: #c88c4b;
      }

      .cls-16 {
        fill: #eed1ac;
      }

      .cls-17 {
        fill: #f5d6b2;
      }

      .cls-18 {
        fill: #f9e3c7;
      }

      .cls-19 {
        fill: #fae5ca;
      }

      .cls-20 {
        fill: #f0cfa7;
      }

      .cls-21 {
        fill: #c98e4d;
      }

      .cls-22 {
        fill: #fbe0c0;
      }

      .cls-23 {
        fill: #f7d9b7;
      }

      .cls-24 {
        fill: #f7d9b6;
      }

      .cls-25 {
        fill: #f9dcbb;
      }

      .cls-26 {
        fill: #c68945;
      }

      .cls-27 {
        fill: #f3d4af;
      }

      .cls-28 {
        fill: #fce2c3;
      }

      .cls-29 {
        fill: #c68946;
      }

      .cls-30 {
        fill: #efcda5;
      }

      .cls-31 {
        fill: #c78b48;
      }

      .cls-32 {
        fill: #e5c095;
      }

      .cls-33 {
        fill: #c58744;
      }

      .cls-34 {
        fill: #f1cfa8;
      }

      .cls-35 {
        fill: #edc89e;
      }

      .cls-36 {
        fill: #f2d2ad;
      }

      .cls-37 {
        fill: #e3bc8f;
      }

      .cls-38 {
        fill: #cb9354;
      }

      .cls-39 {
        fill: #f9e4c9;
      }

      .cls-40 {
        fill: #fde3c4;
      }

      .cls-41 {
        fill: #f3d3ae;
      }

      .cls-42 {
        fill: #fce3c4;
      }

      .cls-43 {
        fill: #edc89f;
      }

      .cls-44 {
        fill: #f9ddbc;
      }

      .cls-45 {
        fill: #ebcba5;
      }

      .cls-46 {
        fill: #c78a47;
      }

      .cls-47 {
        fill: #fce2c4;
      }

      .cls-48 {
        fill: #eacaa3;
      }

      .cls-49 {
        fill: #f7e1c4;
      }

      .cls-50 {
        fill: #f4d5b1;
      }

      .cls-51 {
        fill: #f1d0a9;
      }

      .cls-52 {
        fill: #fde3c5;
      }

      .cls-53 {
        fill: #fde4c6;
      }

      .cls-54 {
        fill: #e9c69e;
      }

      .cls-55 {
        fill: #f6d8b4;
      }

      .cls-56 {
        fill: #e7c59c;
      }

      .cls-57 {
        fill: #e7c49a;
      }

      .cls-58 {
        fill: #cf995d;
      }

      .cls-59 {
        fill: #e4be92;
      }

      .cls-60 {
        fill: #ecc79e;
      }

      .cls-61 {
        fill: #f8dab8;
      }

      .cls-62 {
        fill: #f8dcba;
      }

      .cls-63 {
        fill: #fae6ca;
      }

      .cls-64 {
        fill: #ca8f4e;
      }

      .cls-65 {
        fill: #fae6cb;
      }

      .cls-66 {
        fill: #f6d8b5;
      }

      .cls-67 {
        fill: #f9e5c9;
      }

      .cls-68 {
        fill: #f2d8b7;
      }
    </style>
  </defs>
  <path class="cls-33" d="M338.24.33c275.95-11.67,457.59,287.92,319,528-126.55,219.22-438.73,236.31-588.61,32.02C-98.35,332.76,57.85,12.19,338.24.33Z"/>
  <path class="cls-65" d="M382.44,440.04c14.07,11.91,20.89,30.5,35.65,38.85,10.76,6.09,25,6.93,23.35,23.65-1.21,12.26-20.2,18.76-30.6,20.4-7.71,1.21-16.39.25-23.82,1.18-19.74,2.48-25.89,7.68-46.94-1.22-14.66-6.21-15.93-13.69-26.14-21.86-3.96-3.16-9.69-5.06-13.83-8.17-8.99-6.76-11.97-15.65-13.55-26.45-.36-2.43.8-10.86-1.64-11.37-1.78-.37-24.31,20.72-28.4,22.58-3.59,5.7-5.28,11.07-11.85,14.15-14.16,6.64-31.75.78-26.3-17.3,8.3-11.5,13.48-25.49,22.56-36.44,9.49-11.44,33.73-26.08,35.43-40.58.43-3.63-1.46-19.75-3.04-22.78-12.2-11.96-32.86-24.76-32.87-44.12,0-4.76,3.51-10.38,2.96-14.91-.45-3.74-6.64-13.62-8.26-18.81-9.26-29.69.11-45.54,7.82-72.75,2.37-8.36,1.25-17.97,11.19-22.81,14.14-6.87,23.12,9.48,30.76,17.79,19.72,21.44,40.84,41.29,44.97,72.03l13.96,4.01c.72-2.85,7.09-6.91,7.43-8.7.14-.76-3.05-7.94-3.54-10.15-2.82-12.71-.48-18.82-.26-30.66.18-9.62-4.65-26.56,7.56-31.45,12.76-5.11,20.38,6.93,27.22,15.58,6.75,8.54,12.41,17.82,17.69,27.31,6.96-8.46,16.98-13.68,26.82-18.17,5.78-2.64,13.45-4.26,18.73-7.27,3.5-2,6.07-6.07,9.91-7.08,10.7-2.81,20.44,4.86,18.82,15.77-.77,5.2-10.23,30.78-12.91,36.13-5.03,10.05-13.14,17.84-21.88,24.61,11.42,1.22,34.97.94,34.04,17.47-.54,9.74-8.38,11.41-14.51,16.56-10,8.4-18.97,17.86-32.52,20.47,6.67,5.1,14.74,11.48,22.72,14.28,13.09,4.6,41.9-.69,39.2,21.63-.95,7.84-15.64,21.76-21.91,27.11-24.05,20.51-51.33,26.42-82.01,20.49-3.23-.69-3.89-.36-2,1Z"/>
  <path class="cls-9" d="M527.44,110.04c2.66,1.77,6.06,3.45,8,5.99-6.3-2.45-7.25,2.39-10,6.99l10.92,5.97c.02-2.33,3.71-5.14,3.95-6.62.26-1.63-3.11-2.83-1.38-4.32l9.5,7.5c-1.47,1.06-2.41-1.06-4.52.38-1.37.93-12.5,16.38-12.32,17.44.2,1.2,2.44,1.81,1.84,3.68l-9.99-7.5c1.16-1.51,3.48,1.27,4.87.42.42-.26,4-7.26,5.17-8.44.27-1.86-7.23-5.16-8.6-7.43l-7.43,9.47,2.98,3.49-9.99-6.5c-.23-3.23,1.8.9,4.46-1.49,2.8-2.52,10.11-14.28,11.53-18-1.34-1.55-.76-2.1,1-1Z"/>
  <path class="cls-9" d="M578.44,519.04c.75-1.08,4.68-7.3,6-5.99-.44,1.38-1.42,2.4-.58,3.98.56,1.06,15.65,12.8,17.1,13.05,1.95.34,1.56-4.05,3.47-2.04.71.74-6.52,9.55-7.51,9.99-.44.19-1.64.26-1.48-.49,4.86-2.24-2.44-8.16-4.68-8.37-1.11-.1-6.39,5.91-6.84,6.87-1.7,3.6,6.49,9.48,9.51,4.99l-6.01,9.99-1.99-.5c.31-.88.95-1.96.79-2.87-.29-1.62-16.07-14.38-17.29-14.29-1.07.09-1.7,2.27-3.49,1.66l7.5-9.97c3.15,1.93-1.49,2.82-.04,5,.68,1.02,7.95,6.7,9.41,5.84.48-.28,6.24-8.75,6.11-9.29-2.88-2.44-5.69-4.69-8.98-6.57-.99.33-1.32,0-1-1Z"/>
  <path class="cls-9" d="M179.44,570.04c.31.97-.03,1.31-1,1-2.89,2.22-8.51,7.81-5.52,11,5.4,5.75,10.43,6.51,13.12-1.99,1.03-3.26-1.51-3.17-1.59-6.01l9.99,7.5-3.87-.45c-.94,4.35-12.9,15.92-12.01,19.22.29,1.07,1.79,1.6,1.88,2.72-.52.49-11.74-5.74-9.51-7.98.64.49,3.15,2.23,3.48,1.99.37-.26,4.93-7.06,4.92-7.5,0-1.02-8.13-5.99-9.41-7.39-2.88,3.03-6.42,6.53-4.5,10.89l-8.98-6.51c-.05-3.87,2.77.69,4,.08,1-.49,12.59-16.89,12.95-18.14.56-1.89-4.04-1.49-1.95-3.43.85-.79,6.97,4.08,7.99,4.99Z"/>
  <path class="cls-9" d="M126.44,194.04c-1.63,2-3.13,5.81-5.99,5.99-.77-1.88,2.46-2.84,1.53-4.01-.67-.84-15.88-12.84-16.86-13.27-2.49-1.09-2.8,2.44-4.67.79,3.01-2.22,5.2-8.99,8.99-8.01-5.02,3.85,2.34,5.57,4.59,8.46.86.2,8.25-7.13,6.95-9.94-.38-.82-5.62-4.84-6.05-4.84-.9,0-2.17,2.75-3.48,2.82-1.43-1.74,6.63-8.99,7.49-11,1.44,1.24-.92,3.34-.07,4.99.54,1.05,15.91,13.02,17.08,13.02,1.58,0,2.16-1.72,3.48-2.02,1.02,1.1-6.21,10.02-8.48,10.01-1.33-.55,1.23-1.79,1.39-2.68.35-1.95-8.27-8.34-8.91-7.86l-6.74,9.04c1.83,3.07,5.1,4.44,7.75,6.49,1.97-.48,2.87.11,2,2Z"/>
  <path class="cls-9" d="M233.45,616.04c2.44,2.48,6.42-6.75,5.96-8.42s-3.87-.7-2.95-3.59c1.63.91,10.58,3.59,10.99,4.01,2.63,2.7-2.77,1.29-3.05,1.45-1,.56-9.18,19.52-9.02,20.96.04.42,4.04.96,2.07,2.57-.91.75-19.04-5.62-17.57-13,1.29-6.46,8.5-5.8,8.63-6.56.94-5.2-2.8-11.63-6.05-15.43,9.77.55,10.72,10.04,11,18Z"/>
  <path class="cls-9" d="M482.44,113.04c-.27-.02-.97.77-2.05.49-6.93-1.79-6.9-5.31-8.5-11.43-.8-3.06.84-6.09-2.95-7.05-.45-.11-3.53,7.49-3.49,8.57.09,2.7,2.99,1.51,2.99,3.41-3.89-.26-8.05-1.94-10.99-4.5l3.89-.6c.05-4.24,8.71-17.45,7.96-20.16-.24-.89-2.3-2.36-1.86-2.72,12.32,1.13,27.86,14.55,8,19,1.69,6.34,2.74,9.99,7,14.99Z"/>
  <path class="cls-53" d="M635.28,474.83c.37-.32,0-1.62.17-1.78.58-.53,2.41-.47,1.9,1.38-3.21,11.67-17.01,24.99-19.92,5.6-5.78.58-8.83,2.13-13.51,4.99s-.01-6.34,1.26-7c2.75-1.43,14.83-1.51,15.26-3.51.11-1.98-6.59-5.25-7.68-5.36-2.23-.23-2.48,4.96-4.31,2.87-.8-.91,4.48-8.6,5.5-9.99.53-.25.48,2.6,2.08,3.91,1.15.93,18.45,9.57,19.25,8.88Z"/>
  <path class="cls-9" d="M94.44,245.04c-.47,1.14-1.91,7.96-4,5.99,0-1.2,1.33-2.32.06-3.48-1.08-.99-18.35-9.55-19.4-9.34-.88.18-2.28,2.3-2.65,1.82.81-4.77,5.56-15.91,10.73-16.85,7.98-1.45,8.13,8.78,8.82,8.9,2.21.39,7.28-.66,9.44-1.55.62-.26,5.61-3.19,6-3.51-.29,1.35-2.61,7.33-3.23,7.77-2.34,1.68-14.56,1.23-15.76,3.74l6.99,4.48c3.29-.11,4.29.56,3,2Z"/>
  <path class="cls-9" d="M563.18,540.24c10.15-.95,18.35,13.49,11.8,22.83-11.52,16.42-32.35-1.53-22.55-15.55,2.03-2.91,7.15-6.95,10.75-7.28Z"/>
  <path class="cls-9" d="M552.21,133.22c9.85-1.11,20.06,10.82,13.69,20.77-10.65,16.63-34.41.73-24.46-13.46,2.08-2.97,7.11-6.89,10.78-7.31Z"/>
  <path class="cls-40" d="M633.44,409.04c.42.45-1.55,2.37-.05,3.49,1.05.78,19.42,6.73,20.46,6.45,1.74-.47.71-3.85,3.59-2.94-.04,1.71-1.21,6.85-2.24,7.75-3.25,2.82-17.91,5.11-21.75,9.75,4.5,1.27,11.77,4.59,16.35,3.51.7-.17.76-3.7,2.65-2.01.36.32-2.78,8.01-3.5,8.99-1.22-.5.08-3.1-.59-3.9-.8-.96-20.89-5.39-23.9-7.11,7.19-5.93,17.46-8.4,25.99-12,.3-1.37-1.04-1.08-1.99-1.47-2.5-1.03-15.44-5.67-16.95-4.43-.59.48,1.23,3.81-2.05,2.91.66-2.38,1.07-5.33,1.89-7.59.37-1.03.58-3.02,2.1-1.39Z"/>
  <path class="cls-40" d="M428.43,85.04c-.02-4.19,3.33-10.71,3.05-14.53-.17-2.26-4.92-2.83-3.04-4.47.35-.31,7.72,1.99,9,2.51.44,3.09-1.82-.09-3.04.88-1.84,1.47-4.67,23.28-5.98,24.61-1.52,1.54-1.74-.53-2.23-1.29-4.56-7.02-7.03-16.85-12.26-23.71-.64,4.46-4.56,12.51-4.47,16.59.05,2.26,4.94,2.7,2.97,4.4-.52.45-7.28-2.42-8.99-2.01l3.99-.98c-.71-5.72,6.14-17.71,5.06-22.31-.28-1.21-2.98-1.08-3.05-2.69,12.05-.87,11.6,16.72,18.99,22.99Z"/>
  <path class="cls-52" d="M153.44,164.04c-1.51,1.48-2.06.93-1-1-.86-.06-1.92-.29-2.12-1.02-1.85-6.59-5.62-16.08-14.8-12-9.97,4.43,3.81,19.67,11.94,15.56l1.98,1.45h1c-1.34,1.41-2.06,3.35-4.26,4.24-11.88,4.8-23.86-9.81-16.75-20.75,11.11-17.08,31.86-.49,24.01,13.51Z"/>
  <path class="cls-9" d="M278.43,618.04l12.52,24.99c.31-2.54,5.14-18.25,4.5-18.99-.44-.5-3.89,1.33-2.99-2l7.99,2.5c-.39,1.16-2.27-.25-3.06,1.13-.71,1.24-4.33,15.84-4.67,18.13-.16,1.06-.65,3.62-.18,4.19s3.81-1.24,2.92,2.04c-2.13-.27-5.93-.54-7.49-2-2.98-2.79-7.99-17.59-10.52-21.99l-4.08,14.51c-1.46,2.3,4.86,3.89,3.08,5.48-.34.31-7.17-2.47-8.99-2.01l2.99-.98c.97-.9,4.05-19.94,5.77-23.74.61-1.35.1-1.58,2.22-1.26Z"/>
  <path class="cls-40" d="M72.44,300.04c-3.84-.94-19.63-6.46-21.39-5.93-1.2.36-1.93,4.77-3.61,2.92-.2-.22,1.46-5.14,1.76-5.73,1.97-3.92,18.62-8.46,23.23-11.27l-15.56-4.94c-2.95-.8.37,3.71-3.43,2.95.26-1.37,1.69-8.66,2.01-9,2.68-2.9,1.29,2.9,1.41,3.06,1.86,2.45,19.88,5.19,23.59,7.42,1.8,1.08.36,1.76-.72,2.31-7.8,3.94-16.75,6.11-24.29,10.71,4.07,1.27,12.72,5.6,16.59,5.47,2.69-.09,1.5-2.98,3.39-2.97.12,2.06-.37,4.06-.99,6-.85,1.52-1.52,1.19-2-1Z"/>
  <path class="cls-28" d="M379.44,627.04c1.02,3.29-2.73,1.15-3.06,2.54-.45,1.88-.05,8.46.08,10.95.1,1.93.66,9.86.92,10.9.31,1.22,3.92.38,4.07,2.6l-21.01,1.01c-1.42-6.14,7.68-.46,12.01-1.99v-10.01c-2.27.26-5.32-.52-7.4.14-1.88.6-.71,3.72-3.6,2.86v-7.99c3.29-1.02,1.15,2.73,2.54,3.06,2.13.51,6-.48,8.46-.07l-1.97-11.58-12.53,2.59c.96-7.24,15.37-2.84,21.49-5Z"/>
  <path class="cls-28" d="M344.44,57.04c.59.57-.4,3.94-1.49,3.97-.64.02-8.59-4.3-11.52-1.46,1.54,1.76.67,9.15,1.01,9.49.26.26,6.43.17,7.4-.14,1.88-.6.71-3.72,3.6-2.86v7.99c-3.29,1.02-1.15-2.73-2.54-3.06-2.14-.51-6,.48-8.46.06l1.01,12.01,13.49-3.01c1.02.15-.87,2.9-.99,3.01-2.27,1.9-16.31,1.05-20.49,2-1.02-3.29,2.73-1.15,3.06-2.54,1.47-6.12-2.31-15.29-1-21.84l-4.06-2.6c3.25.75,19.63-2.33,20.99-1Z"/>
  <path class="cls-40" d="M623.44,500.05l-10.02,16.98c-6.18-1.64-1.5-2.93.02-4.77.92-1.11,4.69-6.04,3.93-7.13-2.02-.18-6.4-4.42-7.97-3.65-2.74,1.34-3.79,5.4-3.19,8.25.76,3.63-6.42-2.24-6.78-3.69,4.98,2.11,6.22-2.36,7.94-6.41l-9.34-5.53c-1.74.41-5.29,9.6-5.61,11.94-.59.46-1.94-1.4-2.04-2.54-.25-2.73,8.76-14.13,10.56-17.45,1.39.74-.64,2.96-.02,4.04.54.95,17.42,11.27,18.47,11.54,1.54.4,2.15-2.18,4.05-1.58Z"/>
  <path class="cls-40" d="M220.43,598.04c-.15.23-1.54-1.03-2.47-.09-.78.79-10.2,18.43-10.51,19.6-.2.76,3.09.84,2.99,2.48-2.63.1-18.98-8.42-18.98-9.49,0-.18,2.3-2.48,2.48-2.48.57,0,6.52,7.22,8.92,6.96,1.57-1.76,5.02-6.1,4.66-8.35-.2-1.23-8.31-5.64-10.07-1.63.33-1.24,2.69-7.7,3.01-8,2.89-2.72.99,3.36,1.4,4.01.31.5,7.06,4.34,7.57,3.98l5.02-10.98-12.99-5c4.02-2.24,14.99,3.82,17.95,6.53.73.67,1.67,1.44,1.03,2.46Z"/>
  <path class="cls-42" d="M430.44,620.01l-2.84,1.66c-.71,3.75-3.58,25.8-5.1,26.92-3.7,2.74-2.72-1.68-3.61-3.48-1.38-2.79-9.57-15.89-11.41-17.63s-4.59-.5-4.04-3.44l10-2-2.99,2.49c2.88,2.23,2.19,6.6,6.34,6.46,7.9-.26,8.37-2.5,7.65-9.95l-2.51.98c-3.07-3.27,10.37-4.43,8.52-2.01Z"/>
  <path class="cls-9" d="M404.43,61.07c.25.31-.11,2.14,0,2.96-10.74-2.52-12.92-7.07-13.99,7,5.28-.74,7.87,3.33,10.99-1.99l-1.49,9.01c.34-5.68-4.65-4.95-9.4-4.9-3.24,14.76-.78,10.61,9.42,11.89,1.47.18,3.09.77,1.48,2l-21-2c.54-3.09,3.86-.81,4-.98.68-.85,3.14-20.18,3.05-21.54-.2-2.98-3.84-1.35-3.04-4.47,2.75,1.33,19.24,2.11,19.98,3.03Z"/>
  <path class="cls-40" d="M74.46,418.03c-.21-.16.65-2.31-1.49-2.03-6.26.8-6.47,8.26-3.64,12.46.62.91,7.84.88,8.12.59.52-.54-1.11-4.23.98-4l2,8.99c-3.86-4.01-29.64-3.44-30.98-6.51-1.49-3.41,1.48-1.62,3.27-2.59,6.16-3.32,16.38-10.99,19.73-16.9.96-.68,4,8.03,3.95,8.51-.03.28-1.58,1.75-1.95,1.48Z"/>
  <path class="cls-40" d="M123.42,513.04c.34.29,4.06,6.4,5.03,7.48.06,1.4-2.22-1.01-3.5.44-.33.37-3.17,5.25-3.19,5.57-.1,1.58,5.17,7.35,6.97,7.31.3,0,5.52-1.58,5.7-1.82.9-1.21-2.66-4.53.49-3.98l4.5,6.99c-1.51-.72-2.62-1.14-4.37-.98-5.7.5-21.3,8.08-26.1,6.98-3.47-.8,1.23-3.34,1.82-4.25,2.74-4.25,9.65-14.84,10.93-19.07.51-1.7-.93-6.9,1.71-4.67Z"/>
  <path class="cls-40" d="M626.42,277.06c.11.09-.37,1.58.73,1.95,6.9,2.33,19.08,1.4,26.63,3.19l2.66,3.83c-2.04-.16-3.56.23-5.37,1.15-2.27,1.16-14.81,10.53-16.62,12.41-1.52,1.58,0,4.12-3.01,3.45.4-1.74-2.45-8.45-2.01-8.99,1.65-2,2.18,2.1,2.48,2,.51-.17,6.52-4.2,6.55-4.6s-1.88-7.23-2.19-7.75c-1.77-2.97-5.95-1.3-8.84-1.65-.19.16,2.21,7.38-.99,3.99-.3-.32-1.08-7.16-2.02-8.49-.1-.88,1.82-.63,1.99-.49Z"/>
  <path class="cls-52" d="M193.44,131.05c-1.86,2.29-6.17,6.86-9,5.49,4.28-1.64-1.91-6-3.68-6.3s-8.18,4.12-8.28,6.25c-.02.47,1.7,6.35,1.97,6.56.65.51,3.25-2,3.98-.51l-6.99,4.5c2.24-7.6-6.69-23.78-4.91-30.38.99-3.65,3.23,1.21,4.55,2.24,5.86,4.58,15.21,11.05,22.35,12.16Z"/>
  <path class="cls-40" d="M579.44,191.04c.91-1.49,3.73-5.12,3.64-6.5s-4.95-7.23-6.71-7.08c-4.06.34-6.5,2.56-5.43,6.57l-5.5-6.99c5.59,1.94,29.02-9.2,32-6,1.46,1.57-2.61,2.84-3.46,4-2.13,2.91-5.34,8.64-7.05,11.96s-4.76,7.38-3.48,11.01c-1.41,1.32-4.1-3.81-5-4.99-1.57-1.21-1.05-2.14,1-2Z"/>
  <path class="cls-40" d="M57.49,444.09l5.95-1.04c-9,14.13,10,23.04,19.02,11.51,4.82-6.16-.07-16.78-8.02-15.53,3.31-6.81,8.81.45,10.78,4.73,11.79,25.66-29.7,27.53-27.73.33Z"/>
  <path class="cls-40" d="M513.44,589.03c-2.92.1-3.03-3.2-6.4-3.01-5.2.29-7.98,7.34-3.59,9.54,3.63,1.82,10.31-2.99,14.96,1.01,8.38,7.2-8.02,22.57-11.97,10.48,1.91-.45,3.01,1.57,4.63,1.75,3.23.37,9.07-3.49,6.29-7.16-3.17-4.18-10.62,1.09-16.2-1.82-12.3-6.43,9.4-26.02,12.28-10.78Z"/>
  <path class="cls-40" d="M196.24,101.25c.48.29,1.04,2.79,2.18,3.29-1.85,2.67-2.7-.55-5.45-.59-3.83-.05-8.02,3.81-5.61,7.39,3.01,4.47,14.73-3.78,18.94,4.33,4.98,9.58-12.97,19.58-14.86,8.37,1.99-.3,2.62,1.66,4.55,2,7.25,1.28,12.11-9.3,1.95-9.1-4.06.08-10.3,2.98-12.98-2.92-3.49-7.69,6.63-15.59,11.28-12.77Z"/>
  <path class="cls-40" d="M438.44,642.04v-6c1.62-.25.64,1.65,2.2,2.33,11.18,4.91,19.35-9.44,11.26-19.3-4.83-5.89-17.64-3.41-17.47,4.96-5.86-2.85-.96-6.05,2.48-8.03,27.35-15.67,31.77,29.43,1.52,26.03Z"/>
  <path class="cls-40" d="M647.3,266.9c-.46.73-4.63,1.25-5.86,1.13,10.09-11.77-8.1-22.66-17.65-12.64-5.26,5.52-2.37,18.38,6.66,16.66.91,2.36-2.8,3.21-4.29,2.85-2.34-.56-6.64-7.5-7.24-9.83-4.89-19.17,17.9-24.23,26.08-9.08,1.21,2.25,3.62,8.83,2.31,10.91Z"/>
  <path class="cls-52" d="M608.45,201.03c1.86-3.2,2.4-9.53-1.95-10.61-11.55-2.87,3.61,21.35-11.54,20.68-6.02-.27-13.15-10.86-8.07-14.11.92-.59,2.73-1.59,3.55-.95,1.97,1.54-1.89,2.1-2.01,2.64-1.13,5.01,2.37,12,7.43,8.27,4.74-3.5-5.54-20.37,9.1-19,5.74.54,13.35,12.38,3.49,13.08Z"/>
  <path class="cls-40" d="M108.7,504.27c-3.57,3.17,4.52,17.93-5.96,19.59-6.51,1.03-16.4-11.82-6.29-13.82-1.1,3.38-2.31,10.25,2.72,10.81,10.11,1.12-.16-12.25,5.26-18.34,7.49-8.42,18.24,6.33,15.57,10.51-.94,1.47-6.67,4.64-4.58.51.65-1.29,1.96-2.09,1.97-3.99.02-3.8-5.61-7.99-8.68-5.26Z"/>
  <path class="cls-40" d="M531.44,578.04c0-.13,1.26-1.13,1.01-2.38-.69-3.51-1.97-7.21-5.5-4.61-1.95-2.18,4.52-4.54,6.48-6.01-1.93,8.6,5.28,20.37,5.05,28.55-.04,1.33-.21,2.82-1.56,3.44s-2.91-3.19-4.55-4.43c-2.37-1.8-15.87-10.54-17.84-11.02-1.39-.34-5.65,1.45-1.83-1.83.64-.55,6.47-5.03,6.72-4.71-2.32,3.78,1.42,5.73,5.02,7.43.93.44,1.75-.45,1.98-.43,1.73-1.38,2.27-.83,1,1l5.33,2.19c-1.64-2.67-1.75-4.73-.33-6.19-1.59,1.03-2.06.71-1-1Z"/>
  <path class="cls-40" d="M293.44,87.04c-.81-1.19-2.83-5.89-3.69-6.07-.97-.2-7.92,1.42-8.71,1.96-.85.58-1.91,7.81-1.61,8.1.54.53,4.23-1.1,4,.99l-8.99,2c4.97-3.8,5.02-29.37,8.51-30.98,3.17-1.46,1.76,1.77,2.9,3.99,3.27,6.34,9.39,16.65,15.58,20.02-.37,2.25-4.43,1.67-5.99,1.99-2.12.56-3.12.03-2-2Z"/>
  <path class="cls-52" d="M266.43,76.04c-13.19-10.22-23.86,10.21-11.49,19,5.99,4.26,15.08.49,15.51-7,5.58,2.48,1.32,6.09-2.3,8.21-21.93,12.82-31.94-15.91-13.1-24.1,5.36-2.33,12.92-4.73,11.38,3.89Z"/>
  <path class="cls-40" d="M662.44,321.03c-.45.45-3.56.01-3.76-1.45-.3-2.18,1.87-8.01-.31-11.46l-9.92.92,2.01,10,2.99.98-9,1c-.2-1.85,3.55-1.47,3.96-2.05.53-.73-1.83-7.03-.97-8.95-.48-.51-11.52,1.64-11.91,2.1-.77.9,1.01,4.12-1.08,3.9l-2.01-10.99c2.61-1.06,1.6,1.79,2.64,2.03,1.66.38,21.7-3.16,22.35-4.1.29-.43-1.84-3.55,1-3.93.02,3.01,4.83,21.17,4.01,21.99Z"/>
  <path class="cls-42" d="M482.44,113.04c.98.06,2.43,1.09,3.39.83,2.52-.69,8.89-16.51,11.59-19.35-1.42-.31-4.68-3.55-2.47-3.5,1.18.02,18.42,9.45,18.46,10.52.04.85-2.21,1.77-3.4,1.55-.53-.1-5.84-6.49-8.08-7.03l-5.5,8.96c2.42.1,4.94,3.28,6.96,3.59,1.58.23,1.87-1.27,2.55-1.56,3.69-1.55-2.06,7.71-3.5,7.99,2-5.23-2.15-6.47-6.41-7.92-1.59.38-4.68,8.04-5.6,9.92,1.48,1.39.85,2-1,1-1.4-.86-5.96-2.29-6.8-3.24-.49-.55-.07-1.61-.2-1.76Z"/>
  <path class="cls-52" d="M156.45,543.03c-.36-.27-1.07-4.86-1.04-5.96-3.51-.73-5.28.77-7.88,2.56-1.79,1.23-17.14,16.32-17.64,17.45-.88,2,.58,3.09.54,4.95l-7.98-7.51,4.51-1.38c3.78-2.7,17.34-18.03,20.19-18.9,3.62-1.1,6.58,0,9.31,2.28,5.16,4.3,1.72,7.83,0,6.51Z"/>
  <path class="cls-47" d="M103.44,227.04c.2-.94.78-3.44.49-4.05-.49-1.03-16.85-11.25-18.45-11.52-1.69-.29-2.62,2.8-4.03,1.07,2.2-1.85,10.42-17.47,11.49-17.49.18,0,2.48,2.31,2.48,2.48,0,.63-7.64,6.75-7.92,9.02,1.22.75,6.98,5.39,7.44,5.39.89,0,7.64-8.19,3.49-9.9.54-.48,9.15,3.35,6.49,5-4.07-2.82-6.53,3.58-7.49,6.97,3.3,1.08,7.04,3.2,10,5.01.99-.33,1.32,0,1,1-1.83,2.63-2.12,4.64-5,7Z"/>
  <path class="cls-52" d="M542.44,546.04c1.02,4.16-2.85,3.77-6,4-.25,2.04.18,3.58,1.13,5.37,1.13,2.13,15.14,18.62,17.17,20.33s3.47.65,5.7.31l-8.5,7.99.06-4.95c-3.34-4.57-17.82-18.14-18.54-22.62-.81-5.01,3.68-11.14,8.98-10.42Z"/>
  <path class="cls-52" d="M98.43,473.04c.46.43,3.36,8.66,5.02,9.99-1.92.56-2.35-1.83-4.04-1.56-.81.13-7.7,3.81-8.49,4.54l-7.96,15.02-4.5-8.99,3,1.52,4.99-9.51c-2.92.03-8.46-2.22-10.78.17-.19.2.99,2.77-1.21,2.82l-3.01-6.99c4.93.46,12.6,2.96,17.25,1.75.62-.16,8.07-4.34,8.32-4.74.41-.66-1.49-6.71,1.4-4.01Z"/>
  <path class="cls-40" d="M480.44,599.04c2.03,1.81-2.27,1.57-2.04,3.43.12.94,3.76,8.75,4.31,9.3,2.32,2.34,11.32,6.3,14.73,7.76-.52,1.13-8.38,5.01-8.99,4.5-2.07-1.74,2.2-2.08,1.99-2.49l-9.5-6.48c-1.87.01-1.87,8.83-1.57,10.43.25,1.32,2.79-.16,3.07,1.04l-6.99,3.5c2.24-7.08,4.6-18.52-.97-24.56-1.74-1.89-7.57.36-5.03-2.42.4-.43,10.55-4.4,10.99-4.01Z"/>
  <path class="cls-40" d="M235.44,108.05l-10.98,5.99c-.55-1.94,1.98-2.59,1.82-4.32-.6-6.5-7.45-11.44-12.78-14.23-1.3-.68-7.9-1.52-6.05-3.44.55-.57,7.63-2.61,8.99-4.01-4.09,3.12,6.84,9.01,7.51,8.97,1.86-.1,1.89-8.71,1.56-10.43-.25-1.32-2.79.16-3.07-1.04l6.99-3.5c-1.04,4.3-3.5,13.12-2.83,17.25.49,2.99,4.81,12,8.83,8.76Z"/>
  <path class="cls-9" d="M581.43,158.04c-.22.29-1.68-1.13-2.95-.56-5.48,2.49-14.88,18.4-22.05,20.14-4.51,1.09-14.77-6.19-8.51-8.57,2.43.55-.11,9.32,7.46,4.44,1.53-.99,18.45-16.76,19.11-17.89,1.35-2.3,1.14-3.15-.06-5.54,1.23-1.09,8.56,5.99,6.99,7.99Z"/>
  <path class="cls-52" d="M626.43,219.04l-2.98-2c.07,3.74-8.14,10.01-2.52,11,3.93.69,8.55.82,9-3.99,2.05,1.72,2.75,4.4,2.49,6.99-3.57-.6-12.17-2.2-15.27-1.8-.54.07-9.39,4.41-9.71,4.84-.17.23,2.25,6.99-.99,3.95-.39-.37-3.52-8.51-4.01-10,2.7,3.46,8.37-.03,11.04-2.45,3.46-3.15,7.06-10.87,7.96-15.55,1.88.74,6.03,7.62,4.98,9Z"/>
  <path class="cls-9" d="M314.44,639.04c.5-1.38,1.47-11.54,1-12-4.32.3-8.96-.88-12.99,1-.28-1.36.46-2.34,1.47-3.09s18.86,1.38,19.52,2.1c.08.08.36,2.11-.49,1.97l-2.51-.99c-.24,3.34-3.93,22.75-2.9,23.95.52.6,3.92-1.12,2.89,2.06l-20.99-3.01,2.5-3.97c2.61,3.19,6.82,3.03,10.48,3.99.91-2.42.84-4.89,1.13-7.41.21-1.87,2.28-2.93-1.11-2.6-.97-1.04-.31-1.7,2-2Z"/>
  <path class="cls-40" d="M622.44,444.05c.32.32-1.29,1.86-.6,2.99.76,1.25,20.28,9.49,21.71,7.42l.9-9.42c.99.42,3.17,2.2,3.52,2.98.49,1.08-8.63,18.64-8.54,22.02-7.51-.83,3.49-7.47.04-10.5-1.29-1.14-18.21-7.77-19.43-7.44-1.09.3-2.01,4.87-3.59,2.94-.33-.4,3.07-8.63,3.74-9.72.51-.82.78-2.75,2.25-1.27Z"/>
  <path class="cls-40" d="M464.44,77.05c.55.74-.78,2.84-1.52,2.99-1.78.36-6.49-5.85-8.98-3.03-.9,1.03-6.32,16.9-6.47,18.68-.29,3.5,1.63,1.84,2.97,4.34-1.81.38-10.31-2.27-11-3.01-2.58-2.77,2.65-1.1,3.02-1.37.9-.65,7.24-19.7,7.04-20.99-.29-1.87-8.42-1.74-10.06-1.63-.71-.61,1.06-3.1,1.96-3.5,1.11-.49,22.31,6.55,23.03,7.52Z"/>
  <path class="cls-40" d="M69.41,245.99c-.53.75-5.76,3.13-4.96,7.04,3.67.7,19.66,9.16,21.84,7.87.56-.33.63-2.9,2.15-2.86-.48,3.72-2.15,8.11-4.49,10.99-1.19-.54.03-2.82-.62-3.86-.59-.93-19.3-8.17-20.39-8.06-1.71.17-2.7,8.24-2.49,9.92-1.09.19-1.9-.04-2.53-.97-1.29-1.93,5.35-15.31,6.58-18.49.51-1.3.79-4.39.97-4.53,1.26-1.04,5.14,1.28,3.96,2.95Z"/>
  <path class="cls-40" d="M265.44,616.03l-3.96.05c-.19,6.54-5.82,14.28-6.08,20.49-.12,2.92,8.15,2.42,10.04,2.48-.15.82-1.41,2.25-2.04,2.52-3.4,1.49-17.89-6.9-22.96-6.54,1.79-8,2.48-2.53,4.66-1.19.83.51,4.93,2.46,5.83,1.19.62-.88,6.53-18.54,6.51-19.58-.04-2.36-4.9-2.56-2.99-4.42.44-.43,10.39,3.47,10.99,4.99Z"/>
  <path class="cls-9" d="M169.44,163.04c-.31.46-.64.45-1,0,.32-2.16-.03-3.62-.92-5.57-1.13-2.45-11.99-14.74-14.57-17.44-3.07-3.22-3.71-4.85-8.51-3,.3-1.71,8.6-8.45,8.99-7.99.01,1.41-1.1,2.46-.52,3.95,2.56,6.65,19.25,17.71,18.52,25.46-.13,1.37-1.22,3.39-1.99,4.59Z"/>
  <path class="cls-42" d="M46.44,399.04c.02,1.33-.04,2.67,0,4l9.97-1.04c-.19-1.47-.77-8.49-1.1-8.88-.13-.15-5.19.1-2.86-2.07.43-.4,6.71-1.1,8-1-4.83,3.04-2.82,6-1.92,10.91.57.48,9.22-.82,9.97-1.37,1.96-1.43-.58-5.43,2.95-4.55-.56,1.93,2.4,10.6,2,11-1.8,1.83-1.98-1.9-2.64-2.04-2.03-.42-19.29,3.11-22.36,4.05-.47,2.17-1.14,2.5-2,1-.73-2.6-.55-5.59-1-8-.18-1.53.15-2.19,1-2Z"/>
  <path class="cls-28" d="M397.44,650.04c.4-7.18-.66-11.79-8.8-8.33-2.42,1.03.23,4.08-3.19,3.33l-1-8.99c3.3-.92,1.31,3.31,3.57,3.89,1.11.28,6.26-1.86,8.43-.9-.49-1.87-1.49-11.39-2.1-11.89-.94-.78-4.11,1-3.89-1.09,3.03-.58,7.6-1.73,10.54-1.68.67.01,2.88.93.02,1.63-.66.16-1.48-.37-1.63.58-.37,2.31,2.4,21.62,3.33,22.27.75.53,2.56-.3,2.74.7.44,2.64-2.5,1.2-4.01,1.49-1.55.27-4.19.7-4-1Z"/>
  <path class="cls-28" d="M637.44,336.04c-.32-3.01-1.07-5.95-.99-9,3.22-.95,1.43,2.33,2.06,2.88,1.8,1.57,19.17-2.78,22.95-1.88.63-.62-1.57-4.99,1.99-4,.22,2.25-.28,4.81,0,6.99.89,1.31.74,3.65-1,3,.44-3.32-1.19-1.66-3.01-1.52-2.25.18-4.57.96-6.99.52.67,1.57.82,8.59,1.1,8.94.52.63,3.85-1.16,2.89,2.05l-7.51.99c-1.9-2.74,2.05-1.43,2.58-4.48,1.51-8.8-5.96-7.06-12.06-5.5-.51,2.09-1.17,2.43-2,1Z"/>
  <path class="cls-28" d="M304.44,61.04c2.06-.39,3.06-.06,3,1l1.01,10.01c3.03-1.27,5.76-.84,8.99-2.01.31-1.71.75-2.36,2-1,.34,2.22.04,4.67,1,6.99-3.26.98-1.38-3.35-3.44-3.74-1.18-.22-6.33,1.67-8.55.75,1.22,4.74-.75,12.93,6,12.49-.84,2.44-14.3,2.38-12,.51.8-.13,2.85.51,3.06-.54.28-1.38-2.4-20.64-3.02-21.83-.8-1.55-3.88.66-3.04-2.63,1.65.06,3.35-.11,5,0Z"/>
  <path class="cls-40" d="M70.44,318.04c-.5,2.32.27,9.79-2.98,7.51l.99-2.5c-3.89-.27-20.91-5.03-23.04-3.56-.98.68-.38,2.86-1.96,2.55l1-8.99c1.94,1.24,10.21,4.18,11.53,2.04.2-.32,1.51-7.08,1.48-7.46-.08-1.04-3.11-.98-3.03-2.58l8,.99c.72,3.39-2.63.97-3.82,3.67-3.95,8.94,4.64,8.7,10.82,7.33,1.17-.69,1.22-.26,1,1Z"/>
  <path class="cls-40" d="M54.44,374.04c-.13,3.52-.6,2.74,2.45,3,3.21.27,6.45.1,9.47-1.09.52-.76-.83-6.64-1.18-8.15-.2-.87-3.46-6-.25-4.75,4.12,1.61,2.6,16.72,4.51,20.98-3.22.96-1.43-2.34-2.06-2.88-.49-.43-3.35-.19-4.42-.1-3.75.31-15.12,1.18-17.9,2.11-2.37.79-.58,3.91-2.62,3.87-.16-1.28.2-2.79-.01-3.99-.26-1.55-.69-4.26,1-4,2.37-1.07,7.27-.42,9-1,.18-2.13.85-3.46,2-4Z"/>
  <path class="cls-52" d="M637.44,390.04c4.49.45,19.95,4.71,22.5,4,.34-.1.35-.67.5-1,1.06-.99,1.39-.32,1,2-.41,2.56-1.47,15.55-3.51,15.99-4.29.93-.36-4.87-.02-6.03,1.96-6.65,2.36-6.81-5.26-7.69-1.94-.22-3.68-1.39-3.2,1.72-1.07.28-1.73-.72-2-3-.88-.33-9.47-1.18-10.36-.88-2.03.7-1.74,3.13-1.64,4.88-.96,1.25-1.29.58-1-2,.4-2.54.39-5.3,1-8,.56-1.92,1.44-1.93,2,0Z"/>
  <path class="cls-28" d="M161.44,555.04c1.33,1.41.77,1.92-1,1l-1.28.52c-8.33-5.54-18.49,5.16-15.36,13.76l-1.36,1.72c1.33,1.41.77,1.92-1,1-4.7-4.88-6.62-7.81-3.02-14.53,5.21-9.75,15.17-11.35,23.02-3.47Z"/>
  <path class="cls-40" d="M146.44,577.04c-.51-1.21,1.16-1.87,5-2l-.25-1.37c6.69-4.42,9.39-9.67,8.11-15.72l1.14-1.91,1-1c11.4,11.44-1.83,26.58-15,22Z"/>
  <path class="cls-41" d="M42.44,383.04c-.92-5.41-2.39-11.26-1.99-17l4,1.01c-2.49,3.91-.58,8.2-1.01,11.99-.07.59-1.8,2.43-1,4Z"/>
  <path class="cls-55" d="M307.44,62.04c-.16,0-1.38-.89-3-1,3.06-.69,12.1-3.1,14.55-2.72s1.48,4.62-.04,4.7c-.23.01-2.31-1.81-4.09-1.98-2.32-.22-4.73,1.05-7.42,1Z"/>
  <path class="cls-3" d="M397.44,650.04c.34,0,2.58,1.8,4,1-5.65,1.09-11.33,1.99-16.99,3v-3.99c4.65,2.14,9.25-.06,12.99,0Z"/>
  <path class="cls-66" d="M312.44,641.04c-2.14.5-4.99-1.37-6.4-.95-1.64.49-.9,3.16-2.59,2.95.26-3.01-1.25-7.67,1.98-9-1.64,5.71,4.62,4.45,9.01,5-.1.29-1.86,1.97-2,2Z"/>
  <path class="cls-66" d="M490.44,117.04c4.06,2.11,8.22,4.46,13,4.01-2.7,6.4-10.09-.62-14-3.01.33-.3.81-.61,1-1Z"/>
  <path class="cls-61" d="M663.44,331.04c.01.09.76-.18.97,1.48.51,3.9.36,8.49,1.02,12.51-5.7-.9-3.14-1.05-2.99-4.47.1-2.13-.28-4.57,0-6.52.06-.41,1.51-1.8,1-3Z"/>
  <path class="cls-1" d="M649.44,399.04c.12,1.59-1.49,4.01-1.05,6.36.1.55,3.97,1.01,2.04,2.64-.32.27-7.13-1.25-7.99-2.5,5.81.33,4.77-4.74,4.99-9.5.39.15,1.99,2.82,2,3Z"/>
  <path class="cls-22" d="M639.44,335.04c-.62,5.01,1.61,9.41,2.99,14-5.33-1.23-4.51-8.38-4.99-13,.67-.24,1.36-.84,2-1Z"/>
  <path class="cls-24" d="M653.44,361.03c-2.62,1.98-5.65-5.62-6.22-7.28-.65-1.9-1.38-2.16.72-3.69.62.04,5.99,10.6,5.5,10.97Z"/>
  <path class="cls-66" d="M57.43,328.04c.58,2.83,1.59,5.6,2.07,8.46.11.67,1.57,3.63-.55,3.52-1.27-.07-3.28-8-3.42-9.58-.18-2.1-.67-2.76,1.9-2.4Z"/>
  <path class="cls-62" d="M52.44,378.04c-.41-2.47.58-6.31.07-8.46-.33-1.4-4.03.8-3.06-2.54h7.99c.15,1.7-2.18.82-2.88,2.65-.52,1.36.18,3.33-.12,4.35-.24.81-1.4,3.8-2,4Z"/>
  <path class="cls-62" d="M108.44,220.04c-.31-.34-.61-.76-1-1l3.5-6,2.49-6.99c2.77,5.43-2.07,9.81-4.99,13.99Z"/>
  <path class="cls-23" d="M369.44,73.01c-.36.44-10.56,3.4-10.99,3.02-2.76-2.4,10.01-5,10.51-5.98.88.03.58,2.85.48,2.96Z"/>
  <path class="cls-61" d="M346.44,636.04c2.68,2.34-10.31,5.3-10.99,5.99.14-1.2-.7-2.26.66-3.02.67-.37,9.92-3.33,10.33-2.98Z"/>
  <path class="cls-24" d="M45.44,401.04c-.61-3.29-2.9-7.08-1.99-11,.19-.21,3.88.84,4,1,.25.32-1.05,5.48-1.01,7.99l-1,2Z"/>
  <path class="cls-22" d="M69.44,317.04c.52-3.8,2.08-7.32,0-10.99h2.99c.93,4.38-1.18,8.18-2,11.99.18-.62-.54-1.1-1-1Z"/>
  <path class="cls-44" d="M635.44,400.04c.37,2.42-.26,5.47-.01,8-5.42-2.34-1.54-6.53-.99-10-.08.76.95,1.67,1,2Z"/>
  <path class="cls-40" d="M46.43,312.04c-.08.07-2.11.36-1.97-.48,1.71-.99.84-10.47,3.47-9.51,2.43.88.65,2.25.34,3.3-.42,1.39-1.58,6.46-1.83,6.7Z"/>
  <path class="cls-3" d="M168.44,163.04h1c-.63.98-.98,1.7-2.02,2.43-6.18,4.32-7.12-4,1.02-2.43Z"/>
  <path class="cls-66" d="M662.43,287.04c-2.44-2.01-6.46-4.67-6.99-7.99,1.26-1.28,7.77,5.74,6.99,7.99Z"/>
  <path class="cls-50" d="M286.44,57.05l-8,5.98c1.55-3.51,3.64-6.71,8-5.98Z"/>
  <path class="cls-23" d="M426.44,649.05c-2.06,3.23-3.4,6.85-8,5.98l8-5.98Z"/>
  <path class="cls-4" d="M151.44,575.04c-1.89.95-3.58.83-5,2-2.94-1.02-3.2-2.13-5-4l1-1c2.68-.35,7.4.77,9,3Z"/>
  <path class="cls-25" d="M49.43,432.04c-2.49-1.76-6.6-3.09-5.98-7,1.3.6,7.09,5.79,5.98,7Z"/>
  <path class="cls-17" d="M532.44,579.04c1.15,2.8-2.51,5.78-5,4-.3-.57-.02-.9-1-1l5-4c0,.5.93.84,1,1Z"/>
  <path class="cls-30" d="M124.44,192.04l4.99-1.99c.67,2.38-2.06,2.84-2.99,3.99-.65-.67-1.26-1.43-2-2Z"/>
  <path class="cls-51" d="M94.44,245.04l-3-2c3.38.96,2.79-1.76,4.99-3,.87,2.44-1.51,3.83-1.99,5Z"/>
  <path class="cls-34" d="M579.44,520.04l-2.99,3c-.88-2.75,1.38-3.12,1.99-4,.31.33.61.77,1,1Z"/>
  <path class="cls-17" d="M153.44,164.04c-1.06,1.9-1.99,1.93-3,3h-1c-2.35-1.85.47-5.22,3-4,.06.47.51.91,1,1Z"/>
  <path class="cls-27" d="M637.44,390.04c-.66-.07-1.34.04-2,0,.35-1.52-.26-3.55,1.99-4v4Z"/>
  <path class="cls-1" d="M295.44,89.04c-.89.18-2.29,1.7-4,.99l2-2.99c.5.74,1.38,1.34,2,2Z"/>
  <path class="cls-36" d="M74.44,301.04c-.38,1.18-.29,2.82-1.99,3v-4c.62.16,1.32.76,1.99,1Z"/>
  <path class="cls-8" d="M179.44,570.04c3.97,3.55,1.1,4.46-1,1,.37-.29.68-.66,1-1Z"/>
  <path class="cls-41" d="M579.44,191.04c-.39.63-.64,1.35-1,2-.32-.42-1.72-.72-1.99-1.51-.46-2.35,1.36-1.74,2.99-.49Z"/>
  <path class="cls-43" d="M48.44,408.04v4c-1.69-.19-1.66-1.79-2-3,.68-.25,1.33-.8,2-1Z"/>
  <path class="cls-20" d="M660.44,393.04c.18-.4-.16-1.39,0-2,4.09-.49,1.25,2.41,1,4l-1-2Z"/>
  <path class="cls-58" d="M384.44,439.04l-2,1c-.63-.53-2.04-.78-2-1.99,1.72-.73,3.16.83,4,.99Z"/>
  <path class="cls-35" d="M317.44,70.04c-.04-2.35-.66-3.5,1.99-2.99.08.65-.09,1.36,0,1.99-.68.27-1.31.75-2,1Z"/>
  <path class="cls-60" d="M527.44,110.04c-.36.26-.85.59-1,1-1.45-.63-2.35-1.34-1.99-3,.33-.42,2.47,1.65,2.99,2Z"/>
  <path class="cls-12" d="M369.44,340.04c5.4,11.96,3.36,23.89-8.5,9.02l-11.49,10.49c5.53-.09,6.56,8.11,7,8.5.92.81,13.55-5.47,16.21-6.28,8.4-2.56,18.51-3.58,27.27-2.71,19.52,1.94,34.52,23.34,56.12,25.88,4.24.5,23.75-1.29,18.44,7.66-1.25,2.11-12.92,13.22-15.52,15.47-29.44,25.41-67.19,28.02-98.84,4.79-2.35-1.73-11.52-10.46-12.32-10.62-1.4-.28-4.52,1.77-6.9,1.86-2.54.09-4.9-1.33-7.47-1.04,13.19,17.21-19.43,26.74-20.1,8.49-.08-2.05,2.34-9.02-2.21-8.36-1.1.16-16.13,11.21-18.19,12.86-1.25,1-1.73,2.95-3,4-5.52,4.56-12.04,8.35-16.5,13.99,3.7-.31,7.92.46,11.53.04,28.89-3.37,60.45-4.78,85.78,13.15,17.56,12.43,22.35,32.3,41.02,42.98,7.28,4.16,25.81,7.18,11.7,15.36-12.62,7.32-24.51,3.92-37.45,5.55-10.44,1.32-15.34,5.23-27.98,3.81-20.23-2.27-22.44-12.18-35.13-22.87-8.4-7.07-18.65-7.72-22.19-19.81-2.58-8.83-.25-19.47-5.44-27.56-2.25-3.51-7.61-5.17-4.84-9.65-1.99-.69-3.39,1.5-4.66,1.69-3.47.52-8.67-.53-13.4.74-15.59,4.17-25.02,28.41-31.48,41.52-1.5,1.84-9.82,4.72-10.46,1.52,6.57-11.24,11.71-23.83,20.03-33.95,12.62-15.35,30.07-21.81,37.16-41.84.91-2.58,2.66-8.99,2.54-11.41-.11-2.28-2.67-14.96-3.37-18.14-3.89-17.74-34.43-26.73-33.4-45.61.19-3.56,2.52-6.1,2.98-9.1,1.32-8.67-5.19-16.83-7.95-24.92-9.75-28.53-.64-40.64,6.54-66.49,1.74-6.28.82-22.44,11.02-13.07,16.81,22.04,40.33,38.74,48.72,66.28,10.83,35.55.8,68.35-15.27,100.25,2.63-.47,4.68-3.21,7.61-3.48s4.13.98,6.4,1.99c1.41.71,1.74.71,1,0-.9-8.11,6.2-16.82,14.52-16.09,3.5.31,3.5,2.89,6.47,3.08,1.39-7.44,7.1-7.11,11.53-9.98,1.16-.75,11.18-9.89,11.33-10.66.32-1.67-5.68-11.04-4.85-14.35-1.12-1.01-7.7,7.67-9.49,9-6.03,4.45-22.09,9.87-14.93-2.94,3.35-6,10.36-11.98,17.44-12.07-8.35-5.77-16.31-11.44-18.99-21.98,6.26-.9,13.53,2.08,18.03,6.46,2.11,2.06,2.8,4.98,4.96,6.53-2.08-5.29,6.26-23.36,11.52-22.97s.63,21.81-2.51,24.97c.8.62,7.44-2.82,9.57-2.92,3.38-.16,11.13,3.31,12.77,2.83s1.85-2.9,2.66-3.9c-1.26-2.23-.34-3.11,2-2,.95-4.05,2.28-8.05,4-12-2.65-.36-2.5-1.14,0-2l12.2-26.3c15.49-24.52,34.82-20.37,53.79-33.23,2.1-1.42,1.37-4.46,5.01-3.47-7.28,19.24-9.31,40.36-28.3,52.19-11.89,7.41-27.24,12.55-39.64,19.36-1.64.77-9.69,12.92-9.06,13.43.17.14,1.96-.18,2.96.57.86.65.9,2.08,1.2,2.31.83.63,13.72-7.48,16.59-8.63,16.24-6.51,37.25-4.26,53.79.74,4.72,1.43-.91,2.08-2.05,2.97-20.56,16.08-33.97,34.73-63.5,19.57-1.96-1.01-8.69-6.13-9.49-6.18-1.32-.08-12.11,4.92-14.49,5.66v1Z"/>
  <path class="cls-26" d="M390.44,300.04c-.09.65.08,1.35,0,2-1.68,3.94-3.01,7.94-4,12-.75,1.16-1.54,1.43-2,2-2.74-2.32-.76-4.52-2.83-8.68-5.57-11.19-16.46-17.56-20.67-31.32s-.58-19.01-.43-31.49c.04-3.03-3.44-19.58,1.41-18.51,2.49.55,16.92,20.34,19.15,23.86,11.92,18.86,12.3,28.36,9.37,50.13Z"/>
  <path class="cls-18" d="M369.44,340.04c-.45-.99-6.48-8.63-6-8.99h8.99s-2.99,7.99-2.99,7.99v1Z"/>
  <path class="cls-38" d="M352.44,424.03l-6.99-1.48c2.36-2.89,5.76-1.5,6.99,1.48Z"/>
  <path class="cls-2" d="M314.44,381.04c1.17.67,2.13,1.46,3,2.51l-.5.5-3.49-3.01c.29.13.76-.14,1,0Z"/>
  <path class="cls-31" d="M235.45,618.05c-.86,1.43-3.57,9.53-4.1,9.91-5.94,4.22-12.63-17.33,4.1-9.91Z"/>
  <path class="cls-46" d="M474.93,83.08c10.49,4.66,3.38,17.19-5.37,9.48l5.37-9.48Z"/>
  <path class="cls-46" d="M622.92,474.15c.55-.04,9.38,4.8,9.52,5.4.52,2.22-4.69,5.71-7.4,5.47-7.7-.68-4.12-10.73-2.13-10.88Z"/>
  <path class="cls-29" d="M83.41,238.01c-1.2.82-9.49-3.2-9.91-4.6-1.97-6.62,16.3-8.97,9.91,4.6Z"/>
  <path class="cls-12" d="M573.13,562.73c-8.2,8.7-25.24-5.21-19.14-14.66,7.6-11.75,26.69,6.64,19.14,14.66Z"/>
  <path class="cls-12" d="M554.18,136.21c15.02-3.17,10.02,23.96-3.99,22.62-13-1.25-5.9-20.53,3.99-22.62Z"/>
  <path class="cls-12" d="M152.44,163.04l-3,4c-5.38,1.97-9.7,1.21-14.03-2.47-15.18-12.87,5.83-26.39,15.24-9.24,1.87,3.41,1.36,4.36,1.8,7.71Z"/>
  <polygon class="cls-31" points="424.44 631.04 421.95 642.03 416.47 633.53 424.44 631.04"/>
  <path class="cls-64" d="M67.44,429.03l-9.49-.99c-1.86-2.74,5.5-3.89,7-6.98,1.3,0,2.55,6.53,2.5,7.97Z"/>
  <polygon class="cls-11" points="125.44 535.02 115.44 537.03 120.94 529.05 125.44 535.02"/>
  <path class="cls-5" d="M648.44,283.04c.58,2.31-.45,1.65-1.26,2.28s-7.4,5.03-7.72,4.71l-2.01-7.99,10.99,1Z"/>
  <path class="cls-11" d="M171.45,133.03l-2-10,7.99,5.51c.42,1.67-5.23,5.03-5.99,4.49Z"/>
  <path class="cls-15" d="M589.44,174.05l-4.02,7.98c-1.78,1.23-5.19-4.27-5.97-5.5l9.99-2.48Z"/>
  <path class="cls-7" d="M532.44,579.04c1.4,3.48,3.31,6.98,2.99,11-1.72-2.11-6.37-3.78-7.75-5.27-.45-.49-.09-1.44-.24-1.73l5-4Z"/>
  <polygon class="cls-21" points="288.44 80.03 280.45 81.03 282.45 70.04 288.44 80.03"/>
  <path class="cls-12" d="M160.44,556.04c5.21,7.14-2.63,15.81-9,19-2.78.62-7.58-.52-9-3-6.26-10.97,10.87-25.76,18-16Z"/>
  <path class="cls-65" d="M279.43,270.04c-.68.82-16.35-10.42-17.91-11.58-2.02-1.52-3.79-4.24-5.58-5.42-1.36-.89-2.46-.8-2.48.5-.05,3.55,18.51,15.41,22.28,17.69,1.56.95,5.01,1.61,5.45,2.05.58.58,4.4,12.55,4.96,14.54,1.8,6.42,3.74,14.81,3.79,21.21-8.66-9.18-19.77-15.53-29.01-23.99-1.69,2.56,2.6,5.76,4.49,7.51,7.14,6.57,18.7,12.45,25.03,19.97,4.7,5.58,4.45,30.44,4.97,38.51l-6.97-9.52-26.03-23.97c4.51,11.31,17.83,17.84,25.53,27.47,2.18,2.72,3.83,6.23,5.51,9.28.36.66,1.76.64,1.94,1.44,1.96,8.84-2.55,23.26-3.99,32.29l-1.44-11.04c-1.09-19.25-35.79-29.5-33.47-48.36.35-2.85,2.26-5.64,2.68-8.34,1.44-9.18-7.6-21.08-10.05-30.47-6.95-26.63,4.71-44.77,10.29-69.77l19.98,49.99Z"/>
  <path class="cls-65" d="M421.44,504.04c-9.85,5.26-26.46,3.77-37.39,5.11-10.91,1.33-16.6,5.27-28.87,2.66-16.8-3.58-18.48-10.9-29.27-20.73-9-8.2-19.9-7.93-23.22-21.78-2.49-10.36.42-21.47-8.25-30.24,1.31-1.01,20.56,6,22.46,8.03,2.8,2.99,9.96,20.11,12.02,24.98,2.4,5.64,5.19,20.49,11.03,22.98,3.94,1.68-3.23-8.24-3.71-9.3-5.1-11.41-7.66-24.81-14.81-35.68,1.41-.25,2.46.24,3.71.78,3.63,1.58,24.79,16.53,26.73,19.27,1.76,2.48,3.91,9.97,5.7,13.3,4.77,8.83,9.91,17.83,17.36,24.64.09-5.4-5.98-10.35-8.92-15.08-3.19-5.13-5.1-9.52-7.58-14.92-1.32-1.4-.76-1.92,1-1,16.13,14.32,37.53,27.71,60,26,1.82-.49,2.49-.16,2,1Z"/>
  <path class="cls-65" d="M374.44,394.04c6.28,2.12,16.12,2.02,22,4.5,12.84,5.41,17.99,16.32,36.47,17.54,1.17.08,6.78.32,4.53-2.02-.87-.91-7.12-.98-9.05-1.46-7.62-1.9-13.69-4.44-20.25-8.75-1.39-.91-4-2.4-4.69-3.8,18.3,2.45,36.57-.38,54.21-5.29,4.89-1.36,10.07-4.26,14.78-4.22-27.89,34.51-69.61,48.05-108.72,21.73-2.18-1.47-13.2-9.79-13.84-11.23-.36-.8,3.16-5.09,3.28-7.66.11-2.3-1.79-4.05-1.71-6.33.85-.75,12.66,2.33,14.29,3.2,2.71,1.44,4.95,6.39,7.19,8.81,6.95,7.49,16.7,16.53,25.84,21.16,4.24,2.15,8.86,2.64,3.35-1.35-11.9-8.61-18.91-11.73-28.67-23.83-1.33-1.41-.77-1.92,1-1Z"/>
  <path class="cls-65" d="M438.44,383.03c-5.88.09-12.33,1.03-18.01,2.5-7.61,1.97-19.04,8.9-25.61,9.47-7.45.64-17.77-4.51-25.38-4.97,9.43-7.13,20.92-14.56,32.2-18.29,1.69-.56,8.48-1.4,8.8-1.71,1.47-1.39-.13-1.84-1.5-2.01-4.8-.61-13.36,3.07-17.86,5.16-6.93,3.23-20.66,14.23-27.01,13.79-5.58-.39-12.58-4.22-18.64-3.94,1.72-2.54,5.15-2.79,7.49-5,1.93-1.82,2.75-4.83,4.58-6.42,6.44-5.63,26.94-10.68,35.43-10.65,17.31.05,32.03,12.79,45.5,22.07Z"/>
  <path class="cls-65" d="M400.44,486.04c-.33.49-.67.49-1,0-6.31-1.14-14.08-1.02-20.38-2.12-17.72-3.11-27.76-21.46-43.62-28.89-.27-1.64,1.35-.93,2.48-.99,7.13-.35,18.98,1.85,25.79,4.23,3.13,1.09,7.4,4.4,10.22,4.79,1.87.26,2.12-.78,1.03-2.04-3.69-4.25-20.34-8.02-26.16-8.84-5.63-.79-13.95-.3-18.65-1.35-2.87-.64-11.7-6.54-15.74-8.26-6.74-2.87-13.77-5.1-20.96-6.54.46-1.49,5.17-1.88,6.51-1.98,18.07-1.36,46.1,2.28,62.17,10.8,18.2,9.65,25.5,26.22,38.31,41.19Z"/>
  <path class="cls-65" d="M296.43,383.03c-1.82.23-.87-2.13-.72-3.22,1.55-11.41,3.06-19.35,2.73-31.26-.05-1.85-1.4-4.27-1.06-5.82.18-.82,2.1-.98,2.86-2.36,3.3-5.97,7.44-19.06,9.13-25.91.89-3.58,3.35-13.95,3.1-16.95-.2-2.39-1.97-3.18-2.88-.83-.52,12.05-4.58,23.38-8.38,34.62l-3.76,7.73c1.78-11.5-5.33-25.73-5.05-36.45.19-7.03,4.37-17.28,5.02-25.06.56-6.71-.02-13.83-.47-20.49,6.61,4.71,12.22,16.44,14.77,24.23,11.63,35.48.67,69.98-15.3,101.78Z"/>
  <path class="cls-65" d="M454.44,318.04c.56,2.31-.44,1.64-1.26,2.29-9.57,7.43-18.29,17.33-30.53,20.41s-24.61.56-34.2-8.21l48.99-11.5-1.45-2.67-45.54,9.67,9.97-6.51c16.85-10.25,35.72-5.92,54.02-3.47Z"/>
  <path class="cls-65" d="M399.44,301.04c9.69-13.37,19.29-24.8,31.47-36.03l25.53-20.96c-4.68,11.65-6.62,24.63-14.98,34.51-8.67,10.27-28.69,17.66-41.02,23.48-1.39,1.19-1.93.67-1-1Z"/>
  <path class="cls-65" d="M291.43,297.03l-29.99-79.99c1.89-.33,2.87,1.31,4.03,2.46,3.21,3.21,6.35,8.11,9.46,11.54,2.67,2.94,17.34,17.22,18.05,19.01.57,1.45-.67,2.82-.29,4.21.35,1.3,1.53,2.31,1.83,4.21,2.12,13.42-1.39,25.38-3.08,38.56Z"/>
  <path class="cls-65" d="M467.44,388.05c.23,1.44-1.69,1.31-2.75,1.73-20.39,8.11-39.38,8.42-60.76,7.16-1.77-.1-4.3,1.26-4.47,1.1-1.75-1.61,1.25-2.12,1.98-2.46,6.27-2.89,15.33-6.63,21.97-8.07,4.65-1.01,11.86-.86,15.68-2.29,1.48-.55,1.45-2.22,1.92-2.23,1.32,0,12.28,4.2,16.22,4.78,3.41.49,6.81.24,10.22.29Z"/>
  <path class="cls-65" d="M444.44,249.05c-9.32,9.86-20.27,18-29.51,27.98-7.66,8.26-13.71,18.03-21.48,26.01,2.59-9.27,6.14-19.08,11.19-27.3,8.93-14.55,23.73-22.09,39.8-26.69Z"/>
  <path class="cls-19" d="M400.44,486.04c2.75.53,10.27,6.64,13.97,8.53,2.13,1.09,9.64,3.12,10.03,3.48,1.64,1.49-.16,1.77-1.51,1.96-13.85,2.02-33.66-2.85-44.49-11.98-1.31-1.74,1.47-1.77,3-1,6.8-.34,13.27,1.73,20,1.99l-2-2.99c.32.06.68-.06,1,0Z"/>
  <path class="cls-63" d="M329.35,387.14c-.88,2.95,1.69,5.45,1.62,8.41-.21,8.53-19.6,14.3-18.58,0,.66-9.26,9.27-12.77,16.96-8.41Z"/>
  <path class="cls-65" d="M337.17,384.22c15.99-3.46,18.05,19.37.84,16.75-6.11-.93-4.21-4.53-4.79-9.23-.14-1.11-1.56-2.43-1.51-3.21.08-1.27,4-3.99,5.45-4.3Z"/>
  <path class="cls-19" d="M361.44,299.04c1.07,9.81-3.12,19.3-8.6,27.08-6.88-2.37-18.62-9.73-21.17-16.81-.26-.71-.74-2.15.26-2.26,10,1.69,12.03,8.83,17.52,14.48,5.21,5.35,3.56-6.69,4.07-9.91.66-4.16,3.46-11.35,7.91-12.58Z"/>
  <path class="cls-65" d="M336.67,375.83c-1.89-3.26,2.62-11.92,5.79-13.26,10.49-4.45,17.19,9.8,6.35,15.34-3.6,1.84-10.19,1.27-12.15-2.08Z"/>
  <path class="cls-19" d="M327.19,367.22c9.85-.96,5.85,15.52,1.6,16.71-.45.13-8.48-1.07-9.33-1.42-6.37-2.58.64-14.61,7.72-15.3Z"/>
  <path class="cls-14" d="M284.44,417.03c1.71-4.2,4.69-8.1,6.06-12.43,1.59-5.02.36-11.82,5.93-14.56-1.21,7.61,3.42,10.14,8.99,13.5-1.97,2.6-19.28,15.02-20.98,13.49Z"/>
  <path class="cls-63" d="M316.64,407.22c.5-.44,7.04-1.15,8.82-1.66,1.38-.39,3.02-2.36,3.49-2.36.53,0,4,3.59,4.29,4.54,3.75,12.34-14.41,15.61-17.17,5.08-.34-1.32-.23-4.9.56-5.6Z"/>
  <path class="cls-19" d="M307.94,381.48c1.8,0,6.14,2.4,6.25,4.05.08,1.21-3.08,4.12-3.54,6.22-.52,2.37.68,9.85-1.73,10.3-2.65.49-9.98-5.9-10.18-9.66-.22-4.22,4.83-10.9,9.21-10.9Z"/>
  <path class="cls-67" d="M384.44,325.02c-9.84,4.92-18.51,4.62-29,2,6.52-9.05,20.95-8.46,29-2Z"/>
  <path class="cls-14" d="M329.44,344.03c3.82-9.95,11.58-14.77,21.99-15.99-3.56,8.16-12.54,16.85-21.99,15.99Z"/>
  <path class="cls-39" d="M369.43,353.04c-9.14-4.59-12.65-14.7-14.99-23.99,6.98-.61,17.63,20.41,14.99,23.99Z"/>
  <path class="cls-49" d="M255.44,447.04c-3.11,3.73-7.19,10.58-9.54,14.96-1.13,2.1-6.74,19.49-10.45,16.04-1.85-1.72,16.4-28.94,19-31.99,1.41-1.33,1.92-.77,1,1Z"/>
  <path class="cls-68" d="M254.44,446.04c2.22-2.62,4.43-5.2,6.99-7.51.98-.88,8.32-7.16,9.01-6.48-3.31,6.36-10.4,9.48-15,14.99l-1-1Z"/>
  <path class="cls-16" d="M386.44,314.04c-2.69-3.21,2.43-8.8,4-12-.78,6.2-.45,6.5-4,12Z"/>
  <path class="cls-13" d="M383.44,328.04c1.4-1.32,1.92-.76,1,1-2.88,2.4-6.1,4.66-10,4.99,1.54-4.76,5.23-4.34,9-5.99Z"/>
  <path class="cls-37" d="M277.44,426.05c.4.36-4.64,5.4-4.99,4.99-.64-1.83,3.92-5.94,4.99-4.99Z"/>
  <path class="cls-6" d="M381.44,487.04c-1.09.05-2.52-.31-3,1-.64-.54-2.03-.79-2-1.99l4.33.18.67.81Z"/>
  <path class="cls-57" d="M383.44,328.04c1.11-.49,2.01-2.67,4-1.99-.29,1.54-1.98,2.14-3,2.99l-1-1Z"/>
  <path class="cls-59" d="M282.44,422.05c-.72,1.63-2.2,3.31-4,2.98.72-1.63,2.2-3.31,4-2.98Z"/>
  <path class="cls-10" d="M337.44,381.05v.98c-7.74,2.66-3.04-3.62,0-.98Z"/>
  <path class="cls-56" d="M359.44,477.04l-1,1c-.53-1.14-2.65-2.01-1.99-4,1.59.18,2.12,2.23,2.99,3Z"/>
  <path class="cls-54" d="M419.44,503.04c.57-.04,2.41-1.76,4-.99-.04,1.11-1.16,1.54-2,1.99l-2-1Z"/>
  <path class="cls-45" d="M374.44,394.04l-1,1c-.68-.85-2.66-.85-1.99-3,.38-.48,2.48,1.83,2.99,2Z"/>
  <path class="cls-32" d="M400.44,302.04c-.51.24-2.63,2.45-2.99,2-.71-2.15,1.42-2.21,1.99-3l1,1Z"/>
  <path class="cls-65" d="M380.44,301.04c-6.05-7.1-14.05-16.63-16.94-25.56-4.74-14.63.46-30.33-1.05-45.44,18.09,21.21,32.51,40,25.12,69.63-.3,1.21-.56,4.36-2.12,4.36-3.3-12.13-3.92-25.37-8.3-37.21-.63-1.7-1.21-5.5-3.71-4.78,3.33,12.21,5.59,24.57,7.99,36.99.5,1.84.17,2.51-1,2Z"/>
  <path class="cls-48" d="M381.44,299.04c.16.84,1.72,2.28.99,4-1.21.04-1.46-1.37-1.99-2l1-2Z"/>
</svg>