<?xml version="1.0" standalone="no"?>
<!DOCTYPE svg PUBLIC "-//W3C//DTD SVG 20010904//EN"
 "http://www.w3.org/TR/2001/REC-SVG-20010904/DTD/svg10.dtd">
<svg version="1.0" xmlns="http://www.w3.org/2000/svg"
 width="1080.000000pt" height="1080.000000pt" viewBox="0 0 1080.000000 1080.000000"
 preserveAspectRatio="xMidYMid meet">

<g transform="translate(0.000000,1080.000000) scale(0.100000,-0.100000)"
fill="#000000" stroke="none">
<path d="M4710 8343 c-16 -4 -56 -53 -43 -53 4 1 24 14 43 30 33 29 33 33 0
23z"/>
<path d="M5181 8343 c-53 -3 -61 -6 -47 -16 14 -10 18 -36 23 -125 5 -100 4
-112 -11 -112 -9 0 -16 -4 -16 -8 0 -11 182 -2 198 10 19 16 15 30 -5 20 -10
-6 -38 -13 -62 -17 -52 -9 -61 0 -61 66 0 44 2 47 31 53 49 9 56 8 64 -16 3
-13 9 -18 11 -11 3 6 1 26 -5 45 -5 18 -10 25 -10 16 -1 -14 -10 -18 -45 -18
-47 0 -56 11 -56 73 l0 29 62 -4 c43 -2 63 1 65 10 5 12 4 12 -136 5z"/>
<path d="M4943 8317 c-40 -5 -73 -14 -73 -19 0 -6 7 -8 14 -5 19 7 22 -3 37
-127 10 -77 10 -101 1 -104 -19 -6 -14 -21 6 -17 9 2 35 7 57 11 36 6 37 8 15
13 -21 6 -26 15 -33 60 -5 29 -7 54 -5 55 1 2 24 6 50 10 43 7 47 5 51 -16 2
-13 5 -4 6 20 0 23 -3 42 -9 42 -5 0 -10 -7 -10 -15 0 -10 -11 -15 -35 -16
-19 -1 -41 -2 -47 -3 -8 -1 -15 17 -18 47 -6 44 -4 48 18 54 13 3 41 3 62 0
28 -3 40 -1 44 9 6 16 -19 17 -131 1z"/>
<path d="M5733 8324 c20 -6 21 -17 6 -121 -15 -113 -17 -121 -37 -126 -21 -4
86 -20 147 -21 24 -1 46 4 48 9 2 6 -22 9 -62 7 l-65 -4 0 44 c0 76 6 84 52
80 31 -3 42 -9 46 -26 6 -20 6 -20 13 4 4 14 7 34 8 44 1 19 0 19 -12 2 -11
-15 -21 -17 -56 -11 l-42 7 7 46 c4 26 8 49 10 51 3 4 54 -6 103 -20 7 -2 15
1 18 7 2 7 -12 14 -34 17 -57 9 -170 17 -150 11z"/>
<path d="M5983 8287 c23 -19 22 -30 -10 -142 -18 -63 -32 -95 -42 -97 -9 -2 3
-9 27 -15 23 -6 42 -7 42 -2 0 5 -7 9 -15 9 -20 0 -19 19 4 108 19 71 27 90
34 81 2 -2 29 -56 59 -120 31 -64 60 -119 65 -122 6 -4 22 46 39 118 24 106
31 125 49 127 12 2 0 8 -27 14 -27 6 -48 7 -48 3 0 -5 7 -9 15 -9 10 0 15 -10
15 -27 -1 -30 -25 -142 -33 -150 -3 -2 -31 48 -62 111 -32 64 -63 116 -69 116
-6 0 -22 3 -36 6 -23 5 -24 4 -7 -9z"/>
<path d="M4703 8278 c-6 -7 -21 -69 -33 -138 -13 -69 -27 -131 -33 -138 -15
-19 -6 -21 38 -7 28 9 33 13 18 14 -19 1 -23 7 -23 35 0 41 14 53 65 61 37 6
41 4 62 -29 21 -33 21 -36 5 -45 -13 -8 -8 -9 18 -4 47 8 81 21 58 22 -16 1
-140 176 -157 223 -6 16 -9 17 -18 6z m55 -153 c-2 -2 -20 -6 -41 -10 l-38 -7
6 38 c14 80 15 81 47 29 16 -26 28 -48 26 -50z"/>
<path d="M4457 8206 c-120 -33 -168 -167 -87 -248 24 -23 37 -28 77 -28 51 1
128 33 146 61 6 9 7 25 2 35 -7 17 -8 17 -14 -6 -8 -29 -64 -70 -97 -70 -62 0
-114 62 -114 136 0 75 101 133 152 87 16 -14 18 -14 18 0 0 25 -11 47 -24 46
-6 0 -33 -6 -59 -13z"/>
<path d="M6277 8206 c-4 -10 5 -14 35 -14 64 -1 66 -9 28 -127 -28 -87 -37
-105 -54 -106 -17 0 -14 -4 10 -14 17 -8 44 -17 60 -20 24 -5 26 -4 12 5 -25
15 -23 32 14 138 31 89 34 93 58 87 14 -4 33 -14 43 -23 16 -14 20 -14 27 -2
7 11 -13 22 -98 52 -120 42 -128 44 -135 24z"/>
<path d="M5503 8193 c-43 -15 -62 -41 -21 -27 38 12 88 34 88 39 0 8 -23 4
-67 -12z"/>
<path d="M6560 8113 c10 -15 4 -36 -33 -118 -33 -74 -48 -99 -60 -97 -31 5
-18 -7 29 -28 54 -23 76 -26 49 -6 -19 14 -19 16 -4 58 23 62 40 55 60 -27 10
-38 18 -73 18 -77 1 -4 55 -28 66 -28 1 0 -8 21 -21 48 -12 26 -25 61 -29 79
-6 30 -5 32 27 35 42 4 67 43 53 85 -10 27 -75 67 -143 88 -21 6 -22 5 -12
-12z m95 -48 c42 -41 26 -95 -28 -95 -55 0 -60 10 -36 68 12 29 26 52 31 52 5
0 20 -11 33 -25z"/>
<path d="M4130 8080 c-22 -12 -28 -19 -17 -20 14 0 17 -9 17 -55 0 -32 -4 -55
-11 -55 -6 0 -31 14 -56 31 -34 24 -42 34 -32 40 28 17 -15 9 -50 -10 -35 -18
-35 -18 -10 -26 59 -19 128 -74 154 -124 23 -47 24 -51 7 -60 -39 -23 14 -9
58 15 34 18 39 24 20 22 -20 -3 -28 5 -47 42 -19 39 -22 55 -17 115 4 39 11
76 17 83 16 21 4 21 -33 2z"/>
<path d="M6830 8000 c0 -4 5 -10 12 -12 7 -3 -9 -43 -46 -111 -45 -85 -60
-105 -74 -100 -34 12 3 -14 78 -55 52 -28 80 -38 90 -32 13 8 13 10 0 13 -61
19 -110 40 -110 49 0 6 12 32 26 59 l27 48 39 -22 c27 -15 37 -27 34 -39 -7
-31 10 -20 27 17 9 19 13 35 8 35 -5 0 -11 -5 -13 -11 -3 -8 -18 -4 -46 10
-42 21 -42 22 -28 49 36 67 37 68 89 28 27 -21 49 -31 53 -25 7 13 15 7 -83
62 -46 25 -83 42 -83 37z"/>
<path d="M3774 7894 c-51 -25 -68 -80 -38 -123 15 -21 22 -23 78 -19 71 6 83
3 96 -22 14 -26 3 -48 -32 -66 -27 -14 -32 -14 -53 0 -33 22 -36 20 -23 -9 13
-29 25 -31 71 -11 70 29 94 100 47 138 -21 17 -34 19 -92 13 -66 -7 -68 -6
-79 19 -10 22 -9 29 7 47 15 16 27 20 56 16 39 -5 46 1 26 21 -16 16 -26 15
-64 -4z"/>
<path d="M7133 7819 c21 -12 21 -14 -70 -137 -45 -61 -57 -71 -69 -61 -8 6
-14 8 -14 3 1 -10 84 -74 96 -74 4 0 0 8 -9 18 -16 17 -15 21 14 65 17 26 33
47 36 47 3 0 27 -16 54 -36 l48 -35 -36 -50 c-28 -40 -38 -47 -49 -38 -8 7
-17 10 -20 7 -2 -3 17 -21 43 -41 48 -35 67 -41 44 -13 -15 17 -15 17 63 124
47 66 62 80 73 71 7 -7 16 -10 19 -7 3 3 -18 22 -46 42 -45 33 -68 38 -38 8 8
-8 5 -20 -13 -47 -13 -19 -28 -35 -32 -35 -10 0 -97 61 -97 68 0 3 12 20 26
39 19 25 31 32 45 28 10 -4 19 -4 19 -2 0 9 -83 67 -94 67 -6 0 -3 -5 7 -11z"/>
<path d="M3546 7751 c-4 -6 7 -71 24 -146 17 -74 28 -139 25 -145 -11 -18 9
-10 40 16 24 20 26 24 9 20 -16 -5 -23 0 -32 19 -18 40 -15 52 21 79 41 31 42
31 78 6 18 -14 26 -26 22 -37 -5 -13 -3 -13 13 -4 10 6 30 19 44 30 l25 21
-23 0 c-23 0 -175 92 -218 132 -14 12 -24 16 -28 9z m97 -106 c16 -11 15 -14
-17 -38 l-34 -26 -11 44 c-19 75 -19 75 62 20z"/>
<path d="M3368 7599 c-21 -17 -38 -36 -38 -41 0 -7 5 -7 13 0 15 13 45 -16
155 -146 68 -81 81 -122 38 -122 -29 0 -43 -17 -28 -32 16 -16 82 53 82 86 0
17 -29 59 -95 137 -70 82 -94 116 -90 130 8 24 7 24 -37 -12z"/>
<path d="M7360 7573 c-24 -9 -61 -46 -76 -75 -55 -105 77 -230 184 -174 67 35
101 105 78 160 -23 54 -69 88 -123 92 -26 2 -55 1 -63 -3z m131 -39 c48 -51
16 -149 -61 -189 -43 -22 -68 -18 -101 14 -34 35 -36 58 -9 110 43 85 124 115
171 65z"/>
<path d="M3250 7479 c-64 -26 -108 -100 -96 -163 8 -44 69 -104 114 -112 44
-8 92 14 125 58 38 50 41 85 15 137 -37 71 -101 104 -158 80z m73 -47 c41 -28
77 -82 77 -117 0 -34 -29 -68 -66 -79 -43 -13 -118 35 -150 96 -20 39 -18 56
15 89 35 34 81 38 124 11z"/>
<path d="M7630 7405 c11 -14 6 -24 -36 -67 -82 -84 -183 -168 -204 -168 -13 0
-20 8 -22 27 -4 31 -28 44 -28 15 0 -29 46 -62 86 -62 27 0 48 15 138 101 71
68 111 99 121 95 9 -3 1 12 -16 34 -18 22 -37 40 -42 40 -5 0 -4 -7 3 -15z"/>
<path d="M3026 7258 c-34 -41 -41 -63 -13 -39 13 10 34 0 81 -40 8 -7 -59 -99
-73 -99 -4 0 -22 13 -41 29 -30 25 -33 31 -21 45 7 9 9 16 4 16 -5 0 -24 -18
-41 -39 -33 -42 -42 -62 -18 -42 11 9 30 -1 92 -50 112 -87 110 -85 94 -103
-7 -9 -9 -16 -4 -16 11 1 74 83 74 96 0 5 -7 0 -15 -10 -14 -18 -16 -18 -59
15 -25 19 -45 39 -45 44 0 6 16 29 37 52 l37 43 47 -37 c37 -29 45 -40 36 -50
-6 -7 -9 -16 -6 -18 3 -3 22 15 42 40 21 25 33 45 29 45 -5 0 -13 -4 -19 -10
-6 -6 -40 15 -98 61 -67 54 -87 76 -83 90 7 27 3 24 -37 -23z"/>
<path d="M7692 7180 c-74 -21 -141 -36 -150 -33 -10 4 -6 -7 13 -30 15 -21 30
-35 33 -33 3 3 0 12 -7 19 -9 11 -3 18 28 32 l39 17 31 -33 c37 -41 37 -42 10
-86 -16 -25 -24 -31 -30 -22 -4 8 -11 11 -14 7 -4 -4 9 -24 29 -45 20 -21 33
-30 30 -20 -8 21 112 235 134 239 13 3 13 5 1 15 -11 9 -44 3 -147 -27z m53
-50 l-26 -41 -26 31 c-14 17 -23 33 -21 36 10 10 93 30 96 23 2 -4 -8 -26 -23
-49z"/>
<path d="M7860 7015 c-22 -23 -23 -29 -13 -80 8 -44 7 -59 -5 -76 -19 -27 -50
-21 -76 14 -20 27 -20 29 -4 58 19 32 17 34 -13 19 -50 -28 13 -140 79 -140
12 0 35 12 49 26 22 22 25 31 19 67 -3 23 -8 51 -12 63 -7 25 18 54 46 54 11
0 27 -12 37 -26 13 -21 15 -32 6 -55 -12 -30 -5 -37 15 -17 21 21 13 58 -17
89 -37 37 -79 38 -111 4z"/>
<path d="M2755 6890 c-56 -87 -67 -112 -42 -92 14 12 29 6 112 -45 72 -44 95
-62 91 -75 -8 -34 10 -16 53 53 48 78 58 104 42 113 -6 4 -11 0 -11 -8 0 -22
-42 -106 -53 -106 -15 0 -97 54 -97 63 0 5 10 22 21 39 15 20 28 28 40 25 28
-8 23 8 -8 24 -46 22 -49 23 -35 6 13 -16 6 -32 -35 -86 -4 -6 -83 48 -83 57
0 5 16 25 35 47 23 24 32 42 26 48 -6 6 -26 -17 -56 -63z"/>
<path d="M4425 6906 c-57 -26 -105 -101 -105 -166 0 -16 -22 -98 -50 -182 -66
-204 -72 -235 -72 -363 1 -131 22 -226 82 -356 l41 -88 -17 -50 c-23 -71 -16
-153 20 -224 32 -62 80 -116 208 -230 68 -61 88 -85 92 -110 28 -199 28 -205
-26 -294 -22 -36 -64 -80 -125 -129 -151 -123 -223 -212 -319 -389 -26 -49
-59 -105 -72 -123 -34 -45 -39 -108 -13 -150 42 -65 109 -85 205 -61 74 18
108 56 176 195 47 97 74 139 118 185 49 50 63 59 92 59 61 0 74 -21 84 -130
18 -188 69 -275 200 -344 33 -17 87 -62 139 -117 71 -73 99 -94 169 -127 46
-22 108 -46 138 -52 75 -18 203 -16 286 3 38 9 132 21 208 27 296 23 441 124
396 273 -12 42 -70 107 -95 107 -7 0 -49 18 -93 40 -88 44 -145 95 -205 185
-67 100 -135 179 -188 219 -27 21 -48 40 -46 42 1 2 32 -6 67 -18 98 -32 323
-32 435 0 182 53 353 159 492 306 84 88 105 123 105 180 -1 111 -58 152 -232
166 -118 10 -183 33 -302 112 l-92 60 72 28 c73 28 178 97 222 145 14 15 50
45 82 66 78 53 98 82 98 138 0 58 -29 108 -73 125 -17 7 -86 21 -151 31 -115
18 -119 19 -95 34 51 33 142 128 176 184 45 74 144 354 150 422 11 132 -141
195 -231 96 -10 -11 -66 -39 -125 -62 -144 -56 -245 -110 -320 -170 -35 -28
-64 -49 -66 -47 -1 2 -14 26 -28 53 -33 66 -177 268 -230 322 -65 68 -140 80
-201 32 -51 -40 -54 -57 -58 -320 -3 -232 -2 -247 20 -314 l23 -71 -39 -42
-39 -42 -67 14 c-38 8 -69 16 -70 18 -1 2 -12 41 -25 88 -26 102 -93 243 -153
325 -25 33 -89 109 -144 170 -54 60 -136 150 -181 201 -110 123 -173 153 -248
120z m114 -154 c66 -67 300 -329 343 -382 46 -57 112 -179 138 -256 28 -79 50
-229 50 -336 0 -166 -57 -385 -154 -591 -43 -92 -44 -97 -20 -78 28 22 74 27
103 11 16 -8 19 -4 24 30 7 53 39 94 87 114 52 20 63 20 91 -3 23 -18 23 -18
44 13 11 17 35 38 53 47 17 9 53 34 78 55 26 22 55 46 65 54 19 15 19 16 0 56
-11 22 -23 52 -26 67 -4 15 -9 27 -12 27 -3 0 -25 -21 -49 -46 -51 -52 -113
-83 -167 -84 -49 0 -55 17 -27 75 24 50 78 99 128 117 39 15 40 19 5 40 -69
40 -152 151 -139 184 4 11 15 13 43 8 56 -10 105 -38 145 -82 l36 -39 6 50 c6
59 48 131 89 155 24 15 29 15 37 2 16 -25 11 -117 -10 -176 l-19 -56 22 6 c52
16 95 16 142 2 58 -18 65 -12 58 48 -6 48 -35 98 -101 178 -128 154 -145 212
-136 483 4 110 11 206 17 213 14 18 35 -3 117 -113 96 -128 138 -197 168 -273
23 -59 26 -81 26 -193 l1 -126 22 59 c89 237 188 331 462 439 74 29 149 65
167 81 17 15 34 28 38 28 9 0 7 -28 -3 -48 -5 -9 -23 -64 -41 -122 -82 -266
-129 -317 -414 -456 -107 -52 -199 -94 -205 -94 -11 0 -91 -115 -91 -130 0 -4
11 -12 24 -19 21 -12 31 -9 92 27 115 67 159 77 314 75 139 -2 310 -28 317
-49 2 -6 -18 -25 -44 -44 -27 -18 -71 -55 -99 -81 -103 -96 -221 -149 -329
-149 -71 0 -168 31 -232 75 l-53 35 -62 -20 c-91 -30 -90 -28 -73 -84 19 -63
19 -100 0 -116 -12 -10 -23 -6 -60 25 l-46 37 -42 -38 c-23 -20 -46 -40 -51
-45 -5 -4 5 -19 22 -34 17 -14 34 -35 37 -45 6 -20 7 -20 44 -1 115 59 276 88
388 71 86 -14 146 -41 263 -120 147 -99 256 -140 371 -140 60 0 109 -13 121
-33 10 -16 -9 -45 -76 -115 -264 -276 -610 -363 -911 -231 -63 27 -175 99
-239 153 -47 39 -52 41 -118 41 -64 0 -81 -6 -58 -20 15 -9 12 -72 -5 -105
-34 -66 -130 -78 -186 -24 -25 24 -29 35 -29 81 0 37 -4 55 -14 59 -16 6 -194
-114 -195 -132 -1 -6 -20 -24 -43 -41 -24 -17 -67 -52 -96 -77 l-53 -46 64 4
c35 1 68 6 73 9 23 14 238 18 361 8 161 -14 262 -39 371 -91 140 -67 211 -134
330 -311 68 -102 188 -191 305 -229 45 -14 68 -50 47 -75 -40 -48 -159 -81
-335 -91 -66 -4 -131 -11 -144 -16 -51 -19 -157 -27 -226 -17 -115 16 -201 63
-296 163 -51 53 -102 95 -139 115 -69 37 -125 96 -139 148 -6 21 -14 74 -17
118 -7 92 -39 173 -80 200 -14 9 -23 22 -21 29 4 9 -12 11 -62 8 -117 -7 -139
-16 -217 -96 -59 -61 -82 -95 -129 -192 -70 -141 -78 -152 -121 -160 -69 -13
-68 -5 19 151 99 179 155 248 297 366 109 92 160 157 200 258 25 62 7 268 -29
339 -11 22 -60 75 -108 118 -200 179 -229 234 -187 354 20 57 14 88 -40 209
-49 108 -53 124 -66 224 -13 106 3 207 59 381 27 85 53 176 56 202 8 52 28 94
47 94 6 0 32 -21 57 -48z m857 -2054 c24 -17 43 -33 41 -34 -3 -4 -107 26
-107 31 0 9 13 35 17 35 3 0 25 -14 49 -32z"/>
<path d="M4500 6749 c-1 -16 68 -200 148 -394 89 -218 131 -337 133 -379 0
-11 9 22 20 74 15 71 18 121 15 200 -7 171 6 144 -161 327 -49 54 -104 116
-122 138 -18 22 -32 37 -33 34z"/>
<path d="M4470 6695 c0 -8 -25 -95 -57 -192 -49 -156 -57 -191 -61 -278 -5
-124 12 -205 70 -324 46 -97 54 -169 28 -254 -14 -47 -14 -50 14 -103 22 -41
59 -82 147 -160 131 -116 158 -158 169 -258 4 -34 9 -54 13 -46 11 27 26 114
33 190 l6 75 -42 65 c-24 37 -98 119 -173 192 -104 99 -129 129 -120 139 9 9
23 1 65 -42 30 -30 93 -91 140 -136 48 -45 96 -99 107 -120 l19 -38 -5 100
c-2 55 -11 138 -18 184 -12 75 -18 88 -52 123 -21 22 -72 65 -113 96 -117 87
-170 134 -170 149 0 20 24 16 46 -8 10 -11 50 -43 89 -72 38 -28 92 -71 119
-94 27 -24 50 -42 52 -41 5 6 -55 243 -74 292 -12 30 -28 53 -41 57 -67 25
-251 169 -251 196 0 22 20 15 53 -18 31 -32 188 -141 194 -135 2 1 -30 84 -71
183 -41 100 -81 206 -90 237 -16 55 -26 71 -26 41z"/>
<path d="M5501 6488 c-6 -234 -5 -262 13 -315 19 -56 93 -174 149 -235 l34
-37 -33 152 c-18 84 -39 170 -47 193 -8 23 -11 47 -7 54 12 19 36 -23 55 -98
14 -55 65 -295 65 -311 0 -3 5 1 10 10 5 9 15 56 21 105 23 172 -19 293 -171
497 -44 59 -81 107 -83 107 -2 0 -5 -55 -6 -122z"/>
<path d="M6410 6461 c0 -5 -28 -31 -62 -59 -163 -128 -355 -322 -446 -451
l-42 -59 118 55 c299 141 339 180 418 417 39 114 37 106 24 106 -5 0 -10 -4
-10 -9z"/>
<path d="M6218 6391 c-162 -71 -243 -139 -310 -261 -35 -62 -109 -256 -90
-235 5 6 43 55 85 110 72 95 247 275 367 378 30 26 50 47 45 46 -6 0 -49 -17
-97 -38z"/>
<path d="M4854 6242 c-1 -92 -33 -306 -49 -332 -3 -4 6 -67 20 -140 14 -73 25
-156 25 -184 1 -34 4 -46 9 -36 24 40 83 234 97 314 9 50 20 95 25 100 54 56
-23 -296 -95 -433 -22 -41 -25 -62 -30 -201 -3 -85 -8 -168 -11 -185 -8 -49
92 162 124 260 51 156 75 304 67 422 -11 193 -52 329 -137 459 -23 35 -42 64
-43 64 0 0 -2 -48 -2 -108z"/>
<path d="M5457 5898 c-30 -41 -39 -66 -46 -143 -8 -77 -27 -83 -66 -20 -32 49
-83 90 -130 101 l-29 7 35 -49 c21 -29 57 -62 90 -81 29 -18 60 -37 67 -44 20
-17 45 12 77 90 25 60 46 171 32 171 -3 0 -17 -15 -30 -32z"/>
<path d="M5752 5840 c-18 -29 -15 -48 4 -22 8 12 14 27 12 32 -2 6 -9 1 -16
-10z"/>
<path d="M6018 5754 c-58 -14 -149 -56 -203 -94 -33 -23 -36 -24 85 9 119 32
331 73 348 66 31 -12 -7 -27 -124 -50 -188 -37 -354 -81 -354 -95 0 -16 138
-78 189 -85 63 -9 149 9 221 45 61 31 232 171 222 182 -10 10 -224 38 -280 37
-26 0 -73 -7 -104 -15z"/>
<path d="M5515 5702 c-57 -24 -81 -40 -73 -47 3 -3 36 -11 74 -16 53 -7 78 -6
118 6 78 23 84 30 39 47 -64 26 -114 29 -158 10z"/>
<path d="M5685 5628 c-48 -25 -50 -26 -43 -34 8 -7 61 20 77 40 17 20 15 20
-34 -6z"/>
<path d="M5312 5617 c-18 -7 -48 -25 -67 -40 -35 -28 -71 -84 -61 -94 3 -3 27
2 53 12 45 16 143 103 143 126 0 12 -28 10 -68 -4z"/>
<path d="M5444 5566 c33 -86 38 -94 85 -141 45 -43 48 -41 26 31 -19 64 -65
134 -104 157 l-31 18 24 -65z"/>
<path d="M5532 5579 c23 -31 35 -33 52 -6 13 20 10 23 -36 30 l-38 6 22 -30z"/>
<path d="M5298 5288 c-22 -18 -58 -79 -58 -100 0 -19 45 -58 67 -58 30 0 79
31 97 61 15 25 16 35 6 58 -18 44 -78 65 -112 39z"/>
<path d="M5650 5284 c-102 -27 -183 -71 -228 -125 -24 -27 -50 -49 -58 -49 -7
0 -14 -3 -14 -8 0 -4 43 -18 96 -30 l96 -23 92 54 c174 104 316 161 339 138
15 -15 -2 -31 -31 -31 -38 0 -160 -56 -271 -123 -93 -57 -93 -57 -65 -68 16
-6 71 -19 122 -30 l94 -19 114 45 c124 49 218 75 277 75 20 0 37 5 37 10 0 6
-4 10 -8 10 -5 0 -62 34 -127 77 -67 43 -144 84 -178 95 -72 22 -208 23 -287
2z"/>
<path d="M5090 5211 c-30 -30 -46 -71 -37 -95 3 -8 23 -16 44 -18 21 -3 45 -8
54 -12 11 -5 21 5 37 37 26 52 27 65 6 95 -22 32 -68 29 -104 -7z"/>
<path d="M4901 5065 c-48 -55 -40 -106 23 -143 40 -24 46 -21 46 27 0 19 10
54 21 78 21 43 21 44 3 58 -31 24 -60 17 -93 -20z"/>
<path d="M5245 5073 c-37 -9 -46 -24 -39 -62 4 -19 7 -47 8 -61 1 -20 8 -27
39 -35 45 -10 78 3 110 46 18 26 18 28 2 63 -16 34 -25 40 -85 51 -8 1 -24 0
-35 -2z"/>
<path d="M6285 5070 c-3 -5 -23 -10 -43 -10 -63 0 -172 -28 -271 -67 l-95 -38
80 -8 c149 -15 364 13 519 67 l70 25 -55 0 c-48 1 -107 12 -177 35 -12 4 -24
2 -28 -4z"/>
<path d="M5044 5037 c-31 -28 -36 -39 -36 -76 1 -47 23 -81 54 -81 26 0 80 24
101 44 33 34 12 112 -38 134 -37 17 -41 16 -81 -21z"/>
<path d="M5399 5032 c16 -29 14 -64 -5 -91 -15 -21 -15 -24 12 -52 35 -37 153
-118 219 -152 132 -66 301 -91 430 -64 99 21 219 69 295 119 57 37 255 216
247 224 -1 1 -40 -10 -85 -27 -148 -52 -270 -72 -439 -73 -84 -1 -153 -2 -153
-2 0 -1 23 -16 51 -34 69 -45 158 -79 226 -88 42 -5 58 -11 58 -22 0 -12 -11
-14 -50 -12 -80 6 -179 45 -283 115 -89 59 -105 66 -192 82 -52 10 -104 22
-114 28 -17 8 -17 7 2 -21 45 -62 236 -215 294 -234 7 -3 9 -12 5 -22 -7 -16
-11 -16 -55 10 -113 66 -292 226 -308 276 -5 16 -44 32 -138 54 -26 6 -27 5
-17 -14z"/>
<path d="M4821 5003 c-7 -8 -19 -44 -27 -79 -7 -36 -26 -90 -43 -120 -16 -30
-27 -54 -23 -54 3 0 50 30 105 67 l100 66 -34 18 c-37 18 -57 48 -61 90 -3 23
-5 25 -17 12z"/>
<path d="M5135 4865 c-16 -8 -45 -14 -62 -15 -31 0 -33 -2 -33 -35 0 -76 95
-107 148 -49 26 29 28 61 6 92 -17 25 -18 25 -59 7z"/>
<path d="M4503 4535 c-51 -47 -112 -116 -136 -153 -60 -91 -141 -242 -129
-242 15 0 37 32 67 99 58 133 160 273 227 310 20 11 76 71 66 71 -2 0 -45 -38
-95 -85z"/>
<path d="M4870 4571 l-45 -6 75 -23 c41 -13 125 -47 185 -77 103 -50 116 -53
205 -59 141 -8 316 -59 342 -100 15 -23 -18 -23 -65 0 -60 31 -168 59 -262 69
-74 7 -74 7 -10 -40 22 -16 81 -64 130 -105 152 -128 165 -135 285 -149 58 -6
121 -15 140 -18 l35 -6 -40 44 c-22 24 -71 89 -110 143 -104 148 -205 223
-371 276 -125 40 -382 66 -494 51z"/>
<path d="M4842 4502 c33 -39 44 -77 57 -201 14 -129 30 -155 131 -217 54 -33
111 -80 159 -132 42 -44 94 -89 116 -100 104 -52 245 -67 341 -36 27 9 112 19
189 24 84 5 162 16 195 26 l55 18 -90 7 c-143 11 -285 66 -374 143 -20 18 -67
54 -105 80 l-68 49 41 -79 c22 -44 66 -112 96 -152 58 -77 64 -92 41 -92 -31
0 -143 170 -201 303 -25 57 -41 78 -95 122 -69 56 -221 158 -227 152 -2 -2 17
-46 41 -98 24 -52 56 -132 71 -179 15 -47 41 -102 57 -124 24 -30 28 -40 17
-47 -8 -4 -19 -3 -27 3 -24 20 -60 92 -77 153 -10 33 -45 119 -78 192 l-60
132 -71 29 c-39 16 -83 32 -98 36 -14 3 -34 9 -45 13 -14 5 -12 0 9 -25z"/>
<path d="M5675 4034 c35 -29 158 -81 232 -98 75 -17 141 -20 182 -9 20 5 17 9
-30 28 -30 12 -74 34 -98 50 -36 22 -58 28 -110 30 -36 1 -95 5 -131 9 -62 7
-64 6 -45 -10z"/>
<path d="M8090 6804 c0 -9 -16 -43 -35 -77 -26 -48 -44 -67 -79 -86 -38 -19
-48 -21 -61 -11 -22 18 -19 5 11 -46 27 -47 39 -57 29 -24 -5 16 4 24 46 46
47 23 59 25 117 19 36 -4 72 -9 80 -12 11 -5 10 2 -4 28 -14 26 -19 30 -22 17
-3 -15 -14 -18 -58 -18 -30 0 -54 4 -54 9 0 5 12 29 26 55 21 38 29 44 40 35
19 -16 18 -5 -6 41 -22 43 -30 49 -30 24z"/>
<path d="M2650 6677 c-25 -12 -90 -119 -89 -147 0 -10 2 -11 6 -2 8 21 35 13
131 -39 65 -35 92 -55 88 -65 -11 -28 3 -13 29 32 26 45 30 69 6 40 -11 -13
-18 -12 -57 7 -24 11 -43 26 -41 31 2 6 36 17 76 25 64 12 75 18 92 45 24 40
24 54 0 32 -15 -14 -106 -45 -132 -46 -4 0 -10 15 -13 34 -10 52 -51 75 -96
53z m64 -56 c19 -21 13 -69 -9 -78 -11 -3 -88 28 -104 43 -3 2 6 15 19 29 28
30 70 33 94 6z"/>
<path d="M2529 6462 c-6 -15 -26 -65 -46 -111 -29 -68 -33 -85 -22 -92 11 -6
16 1 21 33 4 23 12 46 16 50 6 6 53 -9 113 -34 85 -36 104 -48 102 -64 -1 -10
9 5 23 35 13 29 22 56 20 59 -3 3 -8 -3 -12 -12 -3 -9 -14 -16 -23 -16 -24 1
-194 75 -198 86 -2 6 8 27 21 46 20 30 22 38 10 42 -10 4 -18 -4 -25 -22z"/>
<path d="M8141 6437 c-94 -35 -108 -142 -31 -239 23 -31 42 -35 58 -15 8 10 6
13 -10 14 -29 3 -57 31 -69 73 -9 30 -8 43 6 69 21 42 92 76 140 67 65 -12
104 -92 74 -148 -10 -18 -8 -19 13 -13 33 11 33 11 20 63 -28 107 -113 161
-201 129z"/>
<path d="M2427 6203 c-3 -16 -9 -37 -12 -48 -6 -19 -6 -19 9 -1 14 18 18 18
83 2 106 -26 107 -30 21 -69 -42 -19 -93 -41 -113 -48 -36 -13 -55 -40 -55
-77 1 -16 1 -15 11 1 14 23 29 22 136 -14 66 -22 93 -35 93 -47 0 -26 17 0 25
38 6 32 6 33 -8 16 -14 -19 -16 -19 -78 -2 -139 38 -139 35 5 96 70 30 127 59
127 64 0 6 -52 26 -116 45 -98 30 -116 38 -112 53 3 10 2 18 -3 18 -4 0 -10
-12 -13 -27z"/>
<path d="M8133 6108 c6 -24 13 -35 15 -25 3 13 14 17 47 17 42 0 43 0 54 -44
6 -25 11 -47 11 -49 0 -2 -14 -13 -31 -26 -26 -19 -33 -20 -46 -9 -15 11 -16
11 -9 -7 4 -11 10 -32 13 -47 6 -29 23 -39 23 -14 0 12 185 159 214 169 27 10
-12 21 -139 37 -75 10 -142 23 -150 30 -11 9 -11 4 -2 -32z m195 -18 c17 0 32
-3 32 -7 -1 -5 -19 -21 -42 -36 -41 -29 -57 -26 -58 10 0 6 -3 19 -7 29 -5 14
-2 16 18 11 13 -4 39 -7 57 -7z"/>
<path d="M8440 6113 c0 -5 12 -20 26 -34 23 -21 26 -22 23 -5 -4 19 -49 56
-49 39z"/>
<path d="M8449 5905 c-3 -16 -23 -23 -114 -41 -103 -21 -111 -22 -123 -6 -12
15 -12 11 -6 -23 4 -22 10 -49 15 -60 7 -19 8 -19 8 2 1 17 10 25 39 32 68 20
79 16 87 -31 6 -34 4 -44 -11 -55 -17 -12 -17 -13 2 -12 28 1 73 17 52 18 -9
1 -19 9 -22 19 -13 45 -17 82 -9 82 4 1 27 5 50 9 43 8 43 8 49 -25 3 -19 4
-48 2 -64 -4 -23 -1 -30 13 -30 15 0 16 6 2 78 -7 42 -18 88 -22 102 -7 22 -9
23 -12 5z"/>
<path d="M2326 5804 c-10 -52 -16 -98 -12 -101 3 -4 6 1 6 10 0 21 12 21 134
0 81 -14 99 -20 106 -37 5 -15 12 6 24 73 17 89 16 121 -1 121 -4 0 -7 -24 -5
-52 4 -75 -4 -82 -73 -73 l-57 7 6 30 c3 17 6 37 6 44 0 8 9 14 20 14 34 0 22
18 -15 22 -32 4 -49 -6 -25 -14 7 -2 8 -19 4 -47 l-7 -43 -46 7 c-25 4 -49 9
-53 11 -8 5 10 75 23 89 13 14 11 35 -4 35 -9 0 -19 -32 -31 -96z"/>
<path d="M8490 5655 c0 -8 -4 -15 -9 -15 -12 0 -156 -19 -192 -25 -21 -3 -28
1 -33 18 -12 46 -14 8 -4 -83 10 -86 18 -109 40 -110 4 0 1 15 -6 33 -7 17
-16 46 -19 64 -7 36 -1 40 73 45 l45 3 3 -47 c2 -38 0 -47 -15 -51 -10 -3 1
-5 25 -6 23 0 42 4 42 9 0 6 -6 10 -14 10 -14 0 -26 29 -26 66 0 17 8 23 38
28 65 10 64 11 60 -54 -3 -51 0 -60 15 -64 15 -4 18 0 14 17 -3 12 -9 57 -12
100 -4 42 -11 77 -16 77 -5 0 -9 -7 -9 -15z"/>
<path d="M2434 5616 c4 -15 10 -41 13 -57 6 -29 23 -41 23 -15 0 20 -21 80
-33 91 -6 7 -7 0 -3 -19z"/>
<path d="M8366 5358 c15 -29 29 -48 31 -41 5 15 -34 93 -47 93 -6 0 2 -24 16
-52z"/>
<path d="M2515 5273 c17 -40 28 -91 23 -105 -4 -9 -26 -17 -59 -21 -29 -4 -54
-5 -55 -4 0 1 -4 21 -7 45 -5 38 -2 44 16 52 18 7 14 9 -20 9 -24 1 -43 -3
-43 -9 0 -5 6 -10 14 -10 9 0 15 -15 18 -42 3 -24 4 -44 3 -46 -1 -1 -26 -5
-55 -9 l-53 -6 5 61 c3 49 1 62 -10 62 -11 0 -13 -10 -9 -42 4 -24 9 -70 13
-103 5 -44 9 -54 15 -39 8 23 29 28 161 40 69 6 77 5 81 -12 3 -11 3 19 0 66
-6 92 -16 130 -34 130 -7 0 -8 -7 -4 -17z"/>
<path d="M8236 5030 c-30 -121 -35 -165 -20 -180 12 -12 14 -6 14 53 l0 67 38
-1 c60 -2 87 -13 84 -35 -8 -54 -13 -64 -34 -64 -30 0 -16 -10 26 -20 21 -4
36 -4 36 1 0 5 -5 9 -11 9 -11 0 -7 75 4 87 3 2 26 1 52 -3 46 -6 47 -7 41
-37 -3 -17 -12 -43 -20 -59 -10 -18 -11 -30 -4 -34 15 -10 24 10 37 89 7 40
15 81 17 92 5 20 5 20 -10 1 -15 -19 -17 -19 -122 0 -87 15 -108 22 -114 39
-7 19 -8 18 -14 -5z"/>
<path d="M2425 5010 c-16 -4 -22 -8 -13 -9 12 -1 19 -14 24 -47 7 -52 -2 -64
-48 -64 -16 0 -31 -1 -35 -2 -13 -5 -23 83 -12 103 8 16 6 19 -11 19 -24 0
-24 2 -4 -96 20 -105 24 -114 34 -89 6 17 26 24 97 38 107 20 129 21 137 5 4
-7 4 5 1 27 -3 22 -5 48 -5 58 0 9 -4 17 -9 17 -5 0 -7 -9 -4 -19 4 -16 -2
-22 -34 -29 -87 -22 -82 -23 -89 17 -3 20 -7 41 -8 46 -2 6 6 15 18 22 24 14
8 15 -39 3z"/>
<path d="M2600 4829 c0 -15 -152 -136 -205 -163 -41 -21 -13 -32 129 -49 70
-9 134 -22 142 -28 18 -15 18 5 -1 46 -9 21 -14 24 -14 12 -1 -15 -8 -18 -42
-15 -40 3 -43 5 -54 46 -13 42 -13 43 22 69 29 22 36 24 44 12 12 -17 1 48
-12 71 -7 13 -8 13 -9 -1z m-54 -167 l7 -33 -54 7 c-30 4 -55 8 -57 9 -2 2 16
17 40 33 24 17 46 27 50 23 4 -3 11 -21 14 -39z"/>
<path d="M8183 4787 c-6 -20 -7 -37 -2 -37 5 0 9 5 9 10 0 6 10 10 23 9 33 0
159 -43 158 -53 0 -5 -53 -31 -118 -58 -130 -55 -144 -63 -117 -71 194 -57
224 -69 224 -90 1 -30 15 -4 25 43 6 32 6 33 -7 16 -14 -17 -17 -17 -96 4 -45
12 -80 25 -78 29 3 4 53 27 112 52 95 39 108 48 121 78 8 18 12 36 9 39 -3 2
-8 -3 -12 -12 -9 -22 -24 -21 -136 16 -61 20 -98 38 -100 47 -2 9 -8 -1 -15
-22z"/>
<path d="M2310 4663 c0 -14 52 -65 59 -57 3 2 -9 19 -27 37 -18 17 -32 26 -32
20z"/>
<path d="M2637 4553 c-13 -12 -7 -23 12 -23 29 0 71 -56 71 -94 0 -93 -136
-152 -200 -87 -39 38 -48 77 -27 114 17 28 16 28 -6 22 -36 -11 -38 -18 -21
-75 31 -103 111 -149 200 -115 54 21 79 55 78 110 -2 78 -76 180 -107 148z"/>
<path d="M8066 4435 c-10 -25 -15 -51 -13 -58 3 -7 6 -5 6 6 1 10 9 17 20 17
19 0 189 -66 204 -80 4 -3 -4 -23 -18 -44 -23 -34 -26 -56 -6 -56 4 0 13 17
20 38 7 20 27 68 43 105 29 67 31 97 7 97 -6 0 -9 -6 -6 -14 3 -8 1 -31 -5
-50 -9 -27 -16 -35 -27 -31 -9 3 -58 22 -109 43 -74 30 -92 41 -88 55 9 35
-12 15 -28 -28z"/>
<path d="M7985 4250 c-24 -48 -25 -67 -1 -34 11 14 17 13 58 -7 49 -23 55 -49
12 -49 -12 0 -46 -5 -74 -11 -40 -8 -53 -17 -65 -39 -20 -40 -20 -40 23 -19
20 10 56 21 80 25 41 6 42 6 42 -23 0 -17 8 -37 18 -46 24 -22 75 -22 94 1 24
26 80 142 69 142 -5 0 -11 -6 -14 -12 -3 -9 -37 3 -110 40 -77 38 -104 57
-100 67 13 35 -9 11 -32 -35z m215 -130 c0 -18 -39 -50 -61 -50 -52 0 -75 42
-49 91 10 18 12 18 60 -6 28 -14 50 -30 50 -35z"/>
<path d="M2844 4168 c1 -15 -11 -29 -39 -46 -35 -20 -49 -22 -110 -18 -38 2
-78 8 -89 12 -17 7 -17 6 -1 -26 15 -29 19 -31 27 -17 9 17 69 24 101 11 23
-8 -33 -100 -57 -96 -16 3 -16 -1 4 -36 l22 -39 37 71 c30 56 48 77 84 100 39
24 49 26 62 16 20 -17 19 -9 -7 45 -24 49 -35 57 -34 23z"/>
<path d="M7832 3976 c-35 -55 -50 -89 -46 -100 5 -13 12 -4 28 35 29 72 43 78
94 44 23 -15 42 -32 42 -37 0 -6 -9 -23 -21 -39 -16 -22 -26 -28 -42 -24 -22
6 -22 6 -2 -10 11 -9 28 -21 38 -27 16 -8 18 -7 12 11 -6 21 21 81 37 81 15 0
78 -45 78 -56 0 -5 -16 -27 -35 -49 -24 -26 -32 -42 -26 -48 6 -6 12 -9 14 -6
25 32 105 169 99 169 -4 0 -12 -4 -18 -10 -7 -7 -42 10 -104 49 -77 47 -95 62
-93 80 2 11 2 21 0 21 -1 0 -26 -38 -55 -84z"/>
<path d="M2942 3910 c-34 -14 -45 -54 -31 -116 14 -61 3 -84 -37 -84 -31 0
-59 51 -44 79 15 28 12 33 -10 21 -28 -15 -25 -52 6 -89 20 -25 34 -31 63 -31
59 0 75 25 67 103 -6 53 -4 67 9 81 23 23 40 20 64 -10 25 -32 26 -51 4 -76
-14 -15 -14 -18 -1 -18 8 0 22 8 31 18 15 16 14 21 -2 57 -10 22 -24 45 -32
52 -21 17 -61 23 -87 13z"/>
<path d="M7680 3758 c-14 -17 -29 -38 -34 -47 -8 -14 -7 -14 7 -2 15 12 22 10
58 -15 23 -15 43 -34 46 -41 3 -6 -12 -32 -33 -57 l-37 -45 -44 36 c-33 28
-42 41 -38 57 4 14 -7 7 -34 -24 -38 -42 -48 -67 -16 -40 12 10 29 0 105 -61
71 -57 87 -75 78 -86 -6 -7 -8 -16 -6 -19 3 -3 22 15 42 39 38 47 48 71 18 44
-17 -15 -21 -14 -55 14 l-37 31 36 44 c20 24 41 44 48 44 6 0 24 -12 40 -26
25 -22 28 -29 18 -45 -22 -35 4 -19 41 26 21 25 34 45 28 45 -5 0 -13 -5 -16
-10 -7 -12 -28 2 -128 85 -56 46 -66 59 -56 71 6 8 8 14 3 13 -5 0 -20 -14
-34 -31z"/>
<path d="M3096 3766 c6 -17 -109 -221 -133 -235 -13 -7 -13 -9 1 -14 8 -3 72
10 142 29 70 20 135 33 145 31 25 -7 23 2 -6 36 -24 27 -48 39 -26 13 10 -12
7 -18 -18 -30 -42 -22 -52 -20 -84 20 l-29 34 19 32 c13 22 26 32 38 30 17 -3
16 0 -6 29 -28 36 -53 50 -43 25z m14 -161 c14 -15 20 -29 14 -33 -8 -8 -83
-32 -97 -32 -8 0 46 89 54 90 3 0 16 -11 29 -25z"/>
<path d="M3238 3475 c-86 -80 -115 -102 -125 -93 -28 23 -11 -10 20 -40 32
-31 60 -45 39 -19 -9 10 12 36 91 114 103 102 139 129 157 118 6 -3 10 -15 10
-25 0 -21 15 -34 30 -25 27 17 -43 75 -90 75 -12 0 -65 -42 -132 -105z"/>
<path d="M7430 3474 c-22 -20 -44 -51 -49 -70 -14 -50 3 -96 49 -138 33 -30
48 -36 85 -36 37 0 50 6 84 38 68 64 68 140 0 204 -34 32 -47 38 -84 38 -37 0
-52 -6 -85 -36z m126 -24 c81 -59 94 -132 31 -170 -42 -26 -66 -25 -108 3 -65
44 -97 118 -66 158 36 46 88 50 143 9z"/>
<path d="M7245 3436 c-56 -56 -48 -78 87 -234 58 -67 74 -92 65 -101 -25 -25
10 -8 41 19 37 34 39 40 14 33 -13 -3 -38 19 -93 84 -42 48 -86 102 -98 119
-24 32 -25 68 -3 70 6 1 19 2 27 3 20 1 19 31 0 31 -9 0 -27 -11 -40 -24z"/>
<path d="M3350 3413 c-89 -34 -128 -135 -79 -204 22 -31 88 -68 122 -69 63 -1
137 76 137 142 0 78 -110 157 -180 131z m137 -68 c10 -20 13 -43 9 -59 -9 -35
-69 -101 -107 -116 -27 -11 -34 -11 -57 7 -63 46 -62 110 1 171 62 60 125 59
154 -3z"/>
<path d="M3602 3251 c10 -16 2 -31 -56 -110 -59 -79 -70 -89 -87 -81 -34 19
-20 -4 18 -30 66 -44 66 -44 52 -22 -11 17 -9 25 15 56 29 39 30 39 88 -6 40
-32 40 -35 -1 -88 -16 -20 -21 -22 -35 -11 -9 7 -16 9 -16 4 0 -9 85 -73 97
-73 3 0 -1 8 -9 18 -15 16 -11 24 49 107 47 65 70 89 84 88 10 -2 19 -1 19 1
0 8 -84 66 -94 66 -6 0 -3 -7 8 -15 19 -15 19 -17 -25 -77 l-26 -37 -52 38
-51 38 36 47 c29 38 40 46 57 40 13 -4 2 9 -25 30 -53 41 -64 45 -46 17z"/>
<path d="M7170 3240 c-19 -16 -30 -29 -24 -30 5 0 15 5 21 11 9 9 15 0 24 -31
12 -40 12 -43 -12 -61 -46 -37 -53 -39 -88 -17 -19 12 -30 26 -27 34 9 22 -7
16 -44 -17 -21 -18 -27 -28 -17 -25 21 7 237 -128 237 -147 0 -8 3 -8 11 0 8
8 3 48 -20 147 -17 75 -28 143 -25 151 9 21 3 19 -36 -15z m56 -180 l7 -43
-47 32 -47 33 32 24 c38 28 44 23 55 -46z"/>
<path d="M6937 3076 c-70 -25 -97 -67 -76 -118 14 -34 40 -42 114 -36 62 5 92
-14 81 -50 -9 -28 -58 -47 -84 -33 -29 16 -34 14 -22 -9 16 -31 65 -26 101 9
36 37 38 73 4 107 -24 24 -30 25 -85 19 -56 -6 -59 -6 -76 20 -18 27 -18 28
10 51 31 28 58 30 80 9 29 -30 37 -10 9 23 -17 19 -21 20 -56 8z"/>
<path d="M3900 3030 c-13 -8 -12 -10 3 -10 26 0 117 -41 117 -52 0 -12 -50
-98 -57 -98 -3 0 -21 9 -40 21 -25 16 -32 26 -28 40 10 30 -1 22 -24 -16 l-20
-35 22 5 c13 3 35 -3 54 -14 l32 -20 -22 -40 c-12 -23 -28 -41 -34 -41 -7 0
-30 16 -51 35 -29 26 -42 31 -50 23 -9 -9 10 -24 73 -60 89 -51 105 -57 85
-34 -9 12 -1 34 43 113 47 85 58 98 78 95 23 -2 23 -2 4 11 -35 24 -153 87
-162 87 -4 0 -15 -5 -23 -10z"/>
<path d="M4110 2931 c0 -4 6 -14 13 -20 8 -6 19 -30 26 -53 7 -24 15 -51 17
-60 4 -13 0 -18 -14 -18 -32 0 -72 -38 -72 -69 0 -35 30 -63 104 -95 70 -31
69 -31 54 -7 -10 16 -5 35 33 120 36 81 47 99 62 95 51 -16 -11 25 -70 46 -25
9 -26 8 -10 -4 21 -16 21 -25 1 -75 -22 -54 -39 -43 -54 33 -6 34 -15 67 -18
73 -10 15 -72 45 -72 34z m113 -190 c5 -5 -3 -32 -18 -61 -27 -54 -35 -55 -72
-11 -33 39 2 97 51 87 17 -4 34 -10 39 -15z"/>
<path d="M6623 2907 c-44 -21 -58 -39 -25 -30 13 3 23 -8 40 -42 19 -40 21
-56 16 -113 -4 -37 -11 -75 -16 -84 -11 -22 -5 -22 35 -1 25 13 28 18 15 21
-15 3 -18 14 -18 58 0 30 3 54 7 54 3 0 28 -14 55 -31 35 -23 46 -34 36 -40
-28 -18 0 -15 42 4 35 16 41 21 25 25 -11 2 -46 21 -78 41 -46 30 -63 48 -81
88 -21 45 -22 51 -7 61 27 18 -2 12 -46 -11z"/>
<path d="M4433 2793 c9 -2 17 -12 17 -22 0 -23 -58 -193 -69 -204 -6 -6 -24
-1 -47 12 -25 15 -40 19 -47 12 -13 -13 -21 -9 108 -54 97 -33 111 -35 124
-22 14 13 11 15 -24 16 -79 1 -79 1 -37 124 32 92 42 110 58 108 10 -2 1 6
-21 16 -22 11 -49 19 -60 19 -17 0 -17 -1 -2 -5z"/>
<path d="M6273 2771 c-58 -27 -88 -58 -72 -77 10 -12 14 -9 28 18 22 45 84 68
126 47 85 -42 100 -175 24 -214 -33 -18 -73 -19 -100 -4 -18 9 -20 8 -17 -13
3 -20 8 -23 45 -21 110 5 183 96 154 193 -24 82 -100 110 -188 71z"/>
<path d="M4612 2618 c-23 -98 -32 -123 -45 -122 -10 1 -17 -2 -17 -6 0 -9 80
-23 88 -15 3 3 -2 5 -11 5 -12 0 -17 9 -17 33 0 31 24 134 33 143 2 3 29 -45
58 -106 49 -100 57 -111 88 -120 36 -10 57 -5 27 6 -20 8 -20 35 -2 100 8 27
20 68 26 92 7 28 16 42 27 42 25 0 8 11 -31 20 -21 4 -36 4 -36 -1 0 -5 7 -9
15 -9 8 0 15 -5 15 -10 0 -23 -43 -180 -49 -180 -4 0 -33 56 -65 125 -32 69
-62 125 -67 125 -4 0 -21 -55 -37 -122z"/>
<path d="M6110 2720 l-25 -8 24 -1 c22 -1 23 -4 18 -42 -3 -22 -7 -42 -9 -44
-1 -2 -24 -6 -49 -10 -44 -7 -47 -6 -67 27 -12 18 -17 35 -12 36 6 2 10 7 10
11 0 5 -20 4 -44 -2 l-45 -10 24 -19 c27 -21 138 -194 138 -214 0 -8 4 -14 7
-14 17 0 28 32 49 150 13 69 28 131 34 138 11 14 -12 15 -53 2z m3 -147 c-12
-78 -17 -81 -46 -32 -15 25 -27 48 -27 52 0 5 20 10 67 16 8 1 10 -11 6 -36z"/>
<path d="M4905 2660 c-4 -6 18 -10 59 -10 l66 0 0 -34 c0 -60 -11 -94 -29 -90
-62 12 -71 16 -71 32 0 15 -2 15 -10 2 -5 -8 -9 -28 -9 -45 1 -17 3 -22 6 -12
5 18 37 22 80 11 20 -6 22 -11 17 -48 -4 -22 -10 -45 -14 -49 -7 -7 -63 3
-106 20 -8 3 -14 -1 -14 -10 0 -11 24 -18 95 -27 53 -7 99 -10 102 -6 3 3 -1
6 -10 6 -20 0 -21 26 -4 149 10 69 16 85 32 91 13 5 -6 11 -58 18 -95 15 -124
15 -132 2z"/>
<path d="M5800 2661 l-25 -8 25 -4 c22 -3 26 -11 33 -58 4 -30 6 -55 5 -57 -2
-1 -24 -5 -50 -9 -40 -6 -48 -5 -48 9 0 9 -4 16 -8 16 -4 0 -6 -16 -4 -35 4
-33 22 -51 22 -21 0 9 15 15 46 18 25 2 47 1 50 -1 2 -2 4 -26 4 -53 l0 -49
-62 2 c-41 2 -63 -1 -66 -9 -5 -15 9 -15 120 -1 48 7 88 15 88 20 0 5 -6 6
-14 3 -18 -7 -23 8 -37 126 -11 87 -11 103 1 110 18 12 -42 12 -80 1z"/>
<path d="M5472 2628 c-18 -18 -14 -30 6 -19 9 5 38 12 63 16 43 6 47 5 52 -17
4 -12 7 -39 7 -59 0 -30 -4 -38 -22 -43 -43 -11 -65 -6 -76 17 -9 20 -11 17
-11 -20 -1 -24 4 -43 9 -43 6 0 10 7 10 15 0 11 12 15 45 15 37 0 45 -3 45
-19 0 -10 3 -33 6 -51 l7 -32 -63 3 c-47 3 -65 0 -68 -10 -4 -11 14 -12 94 -6
55 4 101 9 103 11 2 2 -3 4 -12 4 -17 0 -23 38 -30 172 -3 61 -1 68 18 71 11
2 -23 5 -75 6 -63 1 -100 -3 -108 -11z"/>
<path d="M5305 2550 c-11 -4 -33 -13 -49 -19 -16 -6 -26 -14 -23 -17 8 -8 107
26 107 37 0 11 -8 11 -35 -1z"/>
<path d="M6087 2395 c-16 -14 -22 -25 -14 -25 7 0 24 11 37 25 30 32 14 32
-23 0z"/>
</g>
</svg>
